<?xml version="1.0" encoding="UTF-8"?>
<svg id="Indonesian_map" data-name="Indonesian map" xmlns="http://www.w3.org/2000/svg" viewBox="0 0 3324.54 1227.82">
  <defs>
    <style>
      .cls-1 {
        fill: #aed661;
      }
    </style>
  </defs>
  <g>
    <path class="cls-1" id="sumatera" d="M2655.94,548.79c5.64-7.71,5.79-20.76-.7-26.19-2.97-2.48-8.88-3.32-12.84-2.35-9.04,2.22-14.56.7-17.92-8.82-2.73-7.72-9.64-10.74-17.6-7.49-19.39,7.9-34.29,2.56-46.58-14.46,1.66-2.72,3.54-5.96,5.58-9.1,4.81-7.43,8.43-7.63,14.94-1.09,3.47,3.49,6.75,7.35,10.78,10.04,5.08,3.4,9.53,2.81,10.64-4.5.29-1.89,1.04-3.75,1.11-5.64.29-7.18,4.81-9.57,10.66-7.8,16.09,4.87,29.03-.39,40.89-10.91,10.97-9.73,22.43-18.11,38.59-12.69,1.94.65,5.04-.44,6.97-1.69,13.59-8.83,30.78-6.04,43.57,4.84,5.21,4.43,10.68,9.06,16.84,11.74,5.98,2.6,12.95,3.33,19.57,3.95,6.85.65,13.81-.08,20.69.36,2.13.14,4.92,1.58,6.1,3.31,9.95,14.66,16.39,29.65,8.76,48.08-4.33,10.45-7.37,21.95-.15,33.28,1.68,2.63.24,7.09.85,10.6.99,5.72,1.44,11.88,10.62,9.18,5.84-1.72,11.42,8.37,8.72,15.02-9.93,24.44,1.71,43.67,28.01,46.28.52.05,1.02.32,1.96.63,1.15,6.23,1.48,12.99,3.83,18.95,1.43,3.63,5.58,7.92,9.18,8.68,18.05,3.79,35,2.15,48.99-12.21,5.53-5.68,12.35-10.22,18.97-14.71,12.31-8.35,20.71-19.86,27.19-32.87,3.43-6.89,7.18-10.97,15.97-8.91,6.05,1.41,12.72.76,19.05.28,11.13-.84,20.44-5.58,25.08-16.14,3.48-7.92,8.96-12.3,17.15-13.7,6.42-1.1,9.13-4.39,9.38-11.22.33-8.98,7.24-13.29,14.83-15.88,7.68-2.62,15.48-6.45,22.78,1.83,4.45,5.04,10.38,8.99,17.67,5.85,14.09-6.08,26.3-2.08,38.06,6.03,20.84,14.36,43.46,25.06,68.03,31.06,21.05,5.14,42.34,9.27,63.52,13.9,2.89.63,5.71,1.62,9.14,2.6-5.62,13.08-.16,21.16,10.6,27.88,9.73,6.08,14.33,15.27,14.14,27.3-.24,14.65,1.31,29.31,1.22,43.97-.21,37.14-.19,74.31-1.68,111.42-.82,20.52-3.58,41.09-7.17,61.34-2.71,15.31-3.82,29.22,7.35,41.88,6.62,7.5,5.92,16.43,3.71,25.83-3.43,14.62-7.93,29.48-8.06,44.28-.18,20.04,3.87,40.08,5.08,60.18.76,12.61-.23,25.35-.8,38.01-.08,1.71-2.26,3.33-3.47,4.99-1.4-1.14-2.87-2.2-4.19-3.43-6.6-6.12-12.93-12.58-19.8-18.37-11.82-9.96-23.99-19.48-35.97-29.26-4.07-3.32-7.84-7.02-11.98-10.26-9.52-7.43-19.62-9.61-30.61-2.95-7.32,4.44-14.42,4.84-22.64,1.01-6.53-3.04-14.21-3.76-21.46-5.07-4.51-.82-6.95,1.4-7.99,6.17-2.62,11.99-10.16,14.54-19.34,6.84-4.52-3.79-8.98-6.46-14.72-2.1-16.95,12.9-36.17,10.74-57.49,8.53,4.04-7.58,7.29-14.11,10.93-20.42,5.65-9.79,11.85-19.28,17.28-29.18,4.7-8.58,11.46-12.7,21.19-13.43,11.29-.85,21.23-5.41,29.44-13.4,5.03-4.89,6.6-9.79,1.29-15.84-5.17-5.89-6.5-11.14.3-18.3,9.35-9.86,8.13-19.05-1.3-29.31-4.31-4.69-9.19-8.85-13.7-13.35-7.15-7.14-12.35-14.89-13.63-25.64-3.09-25.8-15.38-45.09-40.42-55.85-10.98-4.72-20.29-13.19-30.76-19.26-22.02-12.78-45.36-21.63-71.09-23.81-7.2-.61-14.84-2.91-21.1-6.49-17.18-9.84-36.08-11.27-54.98-13.25-10.7-1.12-21.57-1.47-32.01-3.76-4.33-.95-8.83-5.41-11.38-9.45-7.86-12.51-16.56-22.81-33.19-21.94-2.87.15-5.87-1.28-8.73-2.22-10.85-3.57-12.74-7.14-10.09-18.62,3.9-16.89-.72-28.15-13.93-33.94-13.43-5.89-20.83-1.81-23.79,12.54-3.81,18.48-11.16,35.45-21.63,49.82-19.66-4.6-26.21-20.06-30.87-36.07-4.84-16.59-15.58-27.4-29.41-36.37-8.7-5.64-16.91-12.03-25.14-17.95,5.86-11.37,13.26-13.63,22.92-8.15,14.88,8.45,29.28,5.9,40.85-7.24,8.66-9.83,11.81-10.43,23.35-4.1,4.33,2.38,8.45,5.15,12.77,7.55,8.06,4.46,16.07,3.88,23.02-1.91,8.94-7.45,18.34-15.06,15.69-28.88-1.27-6.65-5.73-8.35-14.18-6.98-14.33,2.32-28.7,4.74-43.16,5.83-4.52.34-10.81-2.23-13.75-5.65-7.67-8.91-16.25-8.76-26.2-5.99-10.85,3.01-22.05,6.42-32.37-1.21-5.5-4.06-10.29-9.09-15.84-14.09Z"/>
    <path class="cls-1" d="M2449.07,265.86c-.36,5.32-.92,10.64-1.02,15.97-.07,4-.44,8.33.87,11.96,3.92,10.87.46,18.63-8.61,24.8-9.32,6.34-12.89,15.14-11.71,26.39.87,8.31,5.85,13.39,12.73,15.73,7.71,2.62,7.71-4.39,8.96-9.38,2.12-8.44,3.76-17.12,7.05-25.1,1.26-3.05,6.26-5.35,10-6.42,6.2-1.77,12.76-2.97,19.19-3.04,3.43-.04,8.38,1.86,10.06,4.52,6.63,10.49,1.07,20.2-10.76,23.72-8.38,2.49-16.6,7.02-23.56,12.37-6.05,4.64-4.49,10.25,2.72,13.24,5.78,2.4,12,3.74,17.98,5.68,13.36,4.34,22.39,15.86,21.86,25.63-7.69-1.32-15.62-2.33-23.34-4.19-3.25-.78-6.23-3.15-9.03-5.21-7.5-5.52-15.42-8.3-24.6-4.76-8.47,3.26-10.95,7.4-8.52,15.91,4.87,17.09,10.56,33.96,15,51.15,1.94,7.5,1.65,15.58,2.37,23.39-1.09.29-2.18.57-3.27.86-2.19-4.98-4.72-9.84-6.5-14.95-3.39-9.71-8.01-18.11-18.72-21.33-5.39-1.62-4.95-5.76-4.26-10.03,1.04-6.51,2.23-13.01,2.94-19.55.68-6.29-1.92-10.85-7.49-14.38-10.88-6.88-10.73-7.77-5.16-19.05,2.02-4.1,3.37-8.64,4.32-13.13,1.25-5.92-1.24-9.78-7.08-12.28-2.01-.86-3.59-4.67-3.84-7.28-.58-5.9.24-11.93-.33-17.82-.79-8.18-1.03-16.25,4.27-22.99,10.06-12.81,20.5-25.32,30.85-37.9,1.02-1.24,2.46-2.14,3.71-3.2.98.22,1.97.45,2.95.67Z"/>
    <path class="cls-1" d="M2565.6,689.79c-12.76-9.54-24.29-18.22-35.9-26.81-4.19-3.1-8.21-6.91-12.95-8.68-4.3-1.61-10.48-2.75-14.06-.82-7.86,4.24-13.84,2.15-19.64-2.64-9.94-8.22-20.38-9.49-32.04-4.01-4.91,2.31-10.2,4.17-15.51,5.15-4.18.77-9.58,1.42-12.87-.53-13.82-8.17-28.95-7.82-44.06-8.95-7.84-.58-15.54-2.98-23.3-4.55-.1-1.5-.2-2.99-.29-4.49,10.25-3.06,20.33-7.58,30.78-8.77,10.96-1.25,21.77-.83,31.99-6.53,3.15-1.75,9.06-.43,12.89,1.29,9.65,4.36,17.71,6.79,28.13-.47,8.79-6.13,19.38-6.95,30.66.52,7.74,5.12,19.23,5.55,29.16,6.09,10.26.56,15.87,5.97,21.05,13.61,3.34,4.92,6.82,10.58,11.68,13.49,13.55,8.09,18,19.33,14.27,37.12Z"/>
    <path class="cls-1" d="M2890.3,890.05c3.87-1.23,5.93-2.13,8.08-2.51,7.68-1.35,9.6-4.57,5.74-12.04-4.67-9.05.7-21.33,9.62-26.53,3.22-1.88,5.44-5.7,7.68-8.95,1.9-2.76,3.17-5.97,4.72-8.98.8.05,1.59.1,2.39.16.6,2.87.97,5.83,1.85,8.61,6.03,19.04,6.87,38.35,2.55,57.76-.76,3.4-3.84,8.55-6.36,8.87-9.28,1.18-11.8,7.85-15.05,14.65-2.21,4.62-4.59,9.49-8.13,13.01-2.3,2.29-6.82,2.35-10.34,3.41-.92-3.05-2.55-6.08-2.62-9.15-.3-12.7-.13-25.4-.13-38.31Z"/>
    <path class="cls-1" d="M3009.96,544.06c-6,2.97-11.75,6.39-17.94,8.65-3.2,1.17-7.76,1.53-10.66.12-14.56-7.09-29.43-11.39-45.88-12.32-7.61-.43-14.88-7.06-22.3-10.88.31-.75.61-1.5.92-2.25,32.33,5.62,64.66,11.25,95.86,16.67Z"/>
    <path class="cls-1" d="M2989.59,493.22c-5.13,6.43-9.75,10.4-17.85,5.49-6.6-4-13.65-4-19.12,2.04-8.27-2.62-12.13-7.98-14.86-15.64-1.71-4.79-6.72-8.75-10.99-12.16-4.61-3.69-10.08-6.3-14.67-11.26,1.95-.2,3.95-.78,5.84-.54,16.89,2.16,32.36,6.79,44.5,20.28,4.33,4.81,12,6.7,18.31,9.57,2.56,1.17,5.54,1.42,8.86,2.22Z"/>
    <path class="cls-1" d="M2563.33,442.28c3.8-12.15,3.47-12.45-8.76-14.38-8.58-1.36-17.11-3.1-25.65-4.66-.06-.94-.12-1.87-.18-2.81,3.96-.86,7.95-2.57,11.87-2.42,10.79.4,20.56-1.13,29.44-8.17,5.06-4.01,10.9-3.72,16.28,1.4,2.56,2.44,6.59,3.85,10.19,4.59,7.29,1.49,10.54,6.04,11.91,12.72-.76.39-1.44.97-1.68.83-11.42-6.68-21.22-5.54-30.15,4.91-2.83,3.31-7.78,4.8-13.26,8Z"/>
    <path class="cls-1" d="M2476.29,272.58c-1.41-2.39-2.28-4.89-3.97-6.52-5.35-5.16-7.06-10.82-4.13-17.88,3.59-8.66,9.4-15.08,18.66-17.01,2.28-.48,6.35,2.09,7.75,4.39,1.64,2.7,2.84,7.57,1.48,9.84-5.26,8.78-11.62,16.9-17.6,25.25-.47.65-1.22,1.1-2.19,1.94Z"/>
  </g>
  <g>
    <path class="cls-1" d="M2082.56,772.41c-14.54-.1-14.97.42-15.02,14.25-.03,8.19-1.9,16.69,7.25,22.14,1.42.85.8,5.11,1.26,8.91-11.51-.58-23.06-.93-20.03,16.04h-20.6c.85-3.55,1.25-6.39,2.24-9.01,1.16-3.09,3.45-5.85,4.11-8.99.54-2.61-.58-5.56-.97-8.36-2.47.5-5.06.7-7.38,1.59-2.74,1.06-5.24,2.72-10.13,5.35,2.24-9.23,5.51-16.3,5.18-23.21-.3-6.53-4.38-12.88-6.06-17.37,7.99-3.68,15.17-5.65,20.61-9.86,6.07-4.7,6.17-14.91,1.87-20.28-5.33-6.66-11.36-4.83-17.78-1.69-5.6,2.73-11.68,4.5-17.21,7.35-9.31,4.81-13.51,12.65-12.32,23.26.21,1.86-.3,3.81-.48,5.8-8.55-1.93-16.87-3.55-25.04-5.75-5.49-1.48-10.17-3.58-8.32-11.45.71-3.05-1.93-7.21-3.77-10.46-2.99-5.27-3.25-9.56-.04-15.33,2.87-5.17,3.34-11.85,4.04-17.96.21-1.8-2.01-4.41-3.78-5.8-4.55-3.59-9.5-6.69-14.25-10.03-8.97-6.3-17.91-12.64-27.26-19.24,1.47-2.61,2.68-5,4.11-7.25,2.92-4.59,3.71-8.99-.32-13.45-4.31-4.77-3.57-9.86-1.11-15.33,3-6.67,5.54-13.55,8.16-20.38,2.49-6.51,2.69-14.41-3.85-16.78-6.81-2.47-15.26-1.42-22.79-.42-3.22.43-5.68,5.08-8.95,7.02-4.56,2.71-9.57,4.68-14.38,6.97-7.1,3.39-14.72,6.03-21.14,10.41-6.39,4.37-5.6,10.29.71,14.79,1.56,1.11,3.47,1.74,5.01,2.88,6.32,4.65,10.7,9.46,10.63,18.8-.1,13.97-2.88,27.12-6.24,40.42-.78,3.1-.42,7.63,1.38,10.02,5.44,7.23,4.52,14.8,3.78,22.92-.56,6.11,1.06,12.38,1.02,18.58-.02,3.44-.38,7.9-2.47,10.14-7.96,8.53-7.85,16.85-3.05,27.06,6.72,14.31,12.09,29.26,17.81,44.03.86,2.21.82,4.93.62,7.37-1.01,12.56-2.2,25.1-3.37,37.65-.09,1-.59,1.95-1.63,2.92-2.86-11.33-6.78-22.19-2.93-34.46,3.21-10.21-6.15-30.77-14.1-33.76-2.05-.77-4.69-.99-6.79-.45-5.26,1.37-10.07,5.63-15.93.91-.81-.65-4.32,1.59-6.28,2.93-9.33,6.36-20.18,5.18-27.61-2.88-4.79-5.19-6.08-10.51-1.25-16.16,5.81-6.8,8.58-13.41,4-22.55-1.64-3.28.65-9.01,2.13-13.29,5.89-17.05,11.31-33.86,1.84-51.59-1.78-3.33-1.39-8.04-1.3-12.09.36-16.25-9.4-27.15-19.82-37.57-1.36-1.36-5.11-1.15-7.46-.54-3.94,1.03-7.55,3.39-11.5,4.35-1.83.44-5.29-.49-6.04-1.87-5.42-10-11.46-19.78-10.35-32.1.31-3.46-2.31-7.1-2.95-10.77-.57-3.24-1.36-7.28.06-9.75,1.05-1.83,5.52-1.62,8.42-2.5,2.27-.69,5.54-1.02,6.52-2.63,7.82-12.83,17.23-25.19,14.54-41.37,13.71-3.99,15.91-7.8,13.83-21.79-1.37-9.21-2.94-18.46-3.25-27.73-.11-3.23,2.73-7.12,5.24-9.74,4.57-4.78,8.26-9.49,7.67-16.62-.12-1.5,1.45-3.26,2.51-4.7,2.7-3.68,5.48-7.3,8.37-10.83,1.66-2.03,3.3-4.33,5.47-5.66,7.75-4.73,9.86-10.2,7.3-18.54-.81-2.63-.26-5.69-.28-8.55-.03-4.85.65-9.81-.17-14.52-1.1-6.31-1.59-11.45,2.32-17.73,3.86-6.19,3.84-14.69,6.31-21.91,1.25-3.65,4.28-6.68,6.45-10.02,2.26-3.47,5.37-6.71,6.46-10.52,1.28-4.47,1.82-8.06,7.4-9.48,2.51-.64,4.57-4.53,6.08-7.35,2.35-4.41,4.06-9.17,6.04-13.79.9.38,1.8.75,2.69,1.13-.46,1.77-.88,3.55-1.4,5.3-1.47,4.96,1.14,7.31,5.48,8.29,12.93,2.94,22.78-4.27,23.91-17.37.87-10.11,14.45-20.33,24.08-18.19,4.02.89,8.07,1.84,12.16,2.25,3.8.38,7.67.08,11.57.08-1.39,12.59,11.32,21.41,24.52,17.72,3.15-.88,6.06-3.01,9.22-3.39,3.25-.39,6.74.35,10,1.12,5.48,1.3,10.82,3.13,16.28,4.53,5.47,1.4,11.22,1.98,16.47,3.94,8.29,3.09,16,8.17,24.49,10.12,4.21.97,9.6-3.16,14.53-5.02,4.75-.51,9.93-1.06,15.11-1.65,1.08-.12,2.19-.77,3.2-.62,10.39,1.53,20.72,3.86,31.17,4.58,8.77.6,17.7-.32,26.49-1.19,4.43-.44,8.88-1.88,13.02-3.6,3.85-1.6,8.37-3.39,10.66-6.51,4.08-5.56,8.04-9.36,15.54-8.54,2.52.27,5.3-1.79,8.03-2.81-5.33-11.77-4.5-12.92,6.96-15.44,3.61-.8,6.77-3.68,11.26-6.25-2.78-2.32-4.69-3.19-5.34-4.63-.8-1.78-1.21-4.31-.53-6,.53-1.32,3.74-3.06,4.48-2.59,12.33,7.83,15.23-1.74,18.96-9.95.33-.72,1.02-1.28,2.07-2.56,10.11,6.46.7,19.05,10.99,26.56-12.5.55-15.35,7.87-19.21,15.55-3.4,6.77-10.07,11.87-15.1,17.87-5.08,6.06-11.22,11.68-14.59,18.62-6.56,13.51-15.41,21.03-31.21,18.72-4.17-.61-9.1.01-12.93,1.73-15.96,7.15-33.05,4.4-49.56,6.51-4.89.63-7.41-1.24-8.74-6.31-2.04-7.78-7.04-9.98-15.59-9.06-23.27,2.5-46.69,4.87-70.06,4.97-29.2.12-25.53.87-35.44,5.23-9.09-10.5-19.63-2.76-29.61-1.51-6.68-10-7.75-10.46-18.69-4.95-5.99,3.02-11.58,4.64-18,1.27-16.07-8.43-28.68-6.07-37.61,9.53-11.05,19.3-18.9,39.86-9.57,62.7.89,2.18.59,4.91.61,7.39.12,13.22,1.63,16.16,14.57,20.48,8.08,2.69,12.56,7.3,13.65,15.53.07.55-.05,1.17.17,1.64,4.46,9.61,16.29,13.25,19.52,24.06.34,1.14,4.18,2.13,6.1,1.74,9.98-2.04,20.57-3.07,29.52-7.4,6.08-2.95,10.81-10.2,14.32-16.54,3.48-6.28,7.96-10.2,14.24-12.98,5.24-2.32,10.2-5.51,13.23,2.68.29.79,1.78,1.18,2.76,1.66,3.85,1.89,33.05-2.72,34.91-6.36,4.15-8.13,10.51-6.3,17.42-5.87,6.61.42,13.34-.89,20-1.62,1.59-.17,3.05-1.36,4.65-1.59,11.54-1.68,11.55-1.64,9.62-12.65,7.86,0,15.77-.38,23.59.28,1.84.15,4.22,3.55,4.92,5.88,1.8,6.04,2.8,12.31,4.58,20.64-4.44-1.86-6.54-2.13-7.73-3.33-7.58-7.62-15.38-7.16-23.85-1.55-2.19,1.45-5.14,2.34-7.77,2.42-11.2.33-18.02,7.19-24.06,15.39-1.47,2-3.08,3.93-4.33,6.07-7.49,12.78-17.75,21.6-32.98,23.44-8.77,1.06-14.42,6.23-18.52,13.65-.86,1.56-2.01,3.36-3.49,4.1-7.34,3.67-14.84,7.01-22.83,10.72-.98-2.58-1.23-5.45-2.8-6.9-2.64-2.44-6.46-5.94-9.17-5.47-5.31.92-8.93,5.73-6.04,11.22,2.3,4.36,6.46,7.89,10.29,11.24,5.31,4.64,10.98,8.88,16.67,13.05,2.62,1.92,5.62,4.59,8.49,4.65,6.68.12,7.79,4.77,9.98,9.27,5.45,11.24,10.8,22.57,17.23,33.25,1.63,2.7,7.14,4.19,10.89,4.22,5.44.06,7.23,2.89,8.59,7.09,1.54,4.74,3.55,9.48-1.53,13.49-2.17,1.71-4.49,3.36-6.22,5.47-3.47,4.22-4.92,8.39.41,12.76,6.96,5.71,10.01,13.5,10.99,22.4.44,4.02,2.05,7.93,3.36,11.82,2.25,6.68,6.7,10.49,14.07,10.53,6.1.03,10.32,2.36,11.64,9.08,1.69,8.62,5.92,14.73,16.12,14.46,1.53-.04,3.88,2.73,4.6,4.66,3.05,8.17,5.63,16.52,8.45,25.02Z"/>
    <path class="cls-1" d="M2319.22,558.91c-5.34,0-10.91.98-15.96-.22-8.11-1.93-15.09-2.7-22.08,3.5-5.99,5.31-13.03,5.11-19.32-.55-4.57-4.11-9.44-4.54-15.27-2.34-8.64,3.26-17.24,5.5-27.08,3.85-6.26-1.05-13.3,2.26-19.93,3.82-2.92.69-5.65,2.23-8.58,2.81-5.84,1.16-11.85,6.16-17.61-.13-6.14-6.72-9.2-14.18-4.35-25.27,8.44,0,17.71-.14,26.97.11,2.05.05,5.07.85,5.92,2.31,4.42,7.6,11.31,6.01,18.18,6.04,9.35.04,18.69,1.38,28.03,1.3,10.97-.09,21.94-1.22,32.91-1.66,5.34-.21,10.79-.47,16.03.34,7.35,1.14,14.56,3.26,21.82,4.96.11.38.22.76.32,1.14Z"/>
    <path class="cls-1" d="M2207.8,635.05c12.61.93,23.02,2.19,33.45,2.33,9.85.13,19.73-1.43,29.58-1.21,3.54.08,7.76,2.46,10.37,5.08,5.5,5.55,10.29,11.83,15.07,18.04,2.3,2.99,4.82,6.34,5.5,9.86.37,1.89-2.71,6.28-4.61,6.52-31.73,4.02-58.45-6.78-81.18-28.56-1.77-1.69-3.08-3.88-4.51-5.91-.9-1.28-1.62-2.68-3.67-6.16Z"/>
    <path class="cls-1" d="M2100.8,531.47c-1.9-1.24-5.31-2.23-5.68-3.9-1.63-7.37-3.95-11.79-13.22-11.37-4.6.21-7.61-.21-9.77,4.13-.85,1.71-1.71,3.61-3.09,4.84-2.58,2.3-5.55,4.18-8.36,6.23-1.6-3.87-4.14-7.65-4.51-11.64-.29-3.17,2.08-6.59,2.83-8.67,5.92-.75,10.98-.89,15.77-2.11,11.04-2.8,20.87.27,30.1,5.77,4.11,2.45,2.23,9.99-4.08,16.72Z"/>
    <path class="cls-1" d="M1981.61,803.34c.2-.79.56-3.25,1.52-5.43.43-.96,2.14-1.94,3.2-1.87,1.11.07,2.83,1.21,3.08,2.19,1.83,7.19,3.35,14.45,3.7,22.23-3.46-5.15-6.92-10.3-11.51-17.12Z"/>
    <path class="cls-1" d="M2082.53,718.99c-2.08,3.99-3.56,6.81-5.59,10.7-4.04-4.19-7.47-7.75-10.9-11.31.69-.99,1.39-1.98,2.08-2.97,4.49,1.12,8.98,2.23,14.41,3.58Z"/>
  </g>
  <path class="cls-1" d="M1061.93,272.56c7.3-4.84,13.23-8.77,19.17-12.7.49.26.98.51,1.48.77-3.19,5.65-6.39,11.3-10.03,17.74,3.76,1.38,6.99,2.56,11.07,4.06-2.59,11.42,2.98,18.87,13.6,23.55,1.84.81,3.88,2.91,4.34,4.78,2.62,10.54,11.21,15.11,19.31,20.27,2.09,1.33,4.29,2.58,6.1,4.23,12.49,11.35,20.78,12.29,34.89,3.14,3.61-2.34,5.59-2.12,9.77-.36,4.51,1.9,11.44,1.09,16.08-1.12,6.18-2.94,9.86-2.07,14.7,2.21,4.41,3.9,9.94,6.67,15.31,9.26,1.25.6,4.39-1.06,5.65-2.54,1.69-1.99,2.4-4.81,3.5-7.23,13.72,5.89,24.25-2.89,35.14-7.71,2.91-1.29,3.36-8.71,4.43-13.43,1.74-7.66,7.76-11.76,15.49-10.79,2.64.33,5.86-.29,8.16-1.62,10.86-6.28,22.19-6.1,33.95-4.25-.43,3.76-.75,6.59-1.08,9.48,10.76,2.59,20.8,5.05,30.88,7.37,1.27.29,3.14.4,3.99-.3,4.86-4.03,7.88-1.57,11.89,1.84,2.16,1.84,7,2.15,9.94,1.13,9.67-3.35,19.03-7.61,28.6-11.56,4.77,7.96,6.63,8.27,13.61,1.14,4.39-4.49,8.12-7.49,15.66-5.69,11.59,2.76,13.6-.34,13.91-14.32,3.9-4.68,7.18-8.02,9.74-11.85,2.79-4.17,3.51-8.26-1.11-12.44-3.88-3.5-3.51-7.36,2.22-9.26,1.26-.42,3.26-.53,3.66-1.38,4.37-9.37,13.33-11.21,21.76-14.61,3.14-1.27,5.68-6.41,6.43-10.19.37-1.88-3.52-5.32-6.17-6.94-4.27-2.63-4.38-6.19-.58-10.54,3.02-3.47,5.11-7.77,7.47-11.79,2.78-4.74,4.91-9.73,11.91-9.76,5.39-.03,8.88-3.36,10.71-8.68,1.87-5.44,4.37-10.66,6.6-15.97,2.42-5.75,3.9-10.85-1.26-16.69-2.16-2.44-1.7-8.58-.46-12.39,3.48-10.67,8.93-20.76,7.41-32.6-.18-1.39.93-3.18,1.9-4.42,2.36-3.01,23-7.02,26.39-5.04,7.72,4.5,15.14,6.46,22.61-.6,1.03-.98,3.41-.68,5.16-.7,1.05-.01,2.38,1.06,3.12.69,15.6-7.74,30.63,2.99,46.48,1.49,11.89-1.12,26.78-4.67,37.52,7.45,1.46,1.65,6.94-.26,12.15-.64,2.9,2.71,6.99,6.55,12.82,12.01-7.2-.81-11.75-1.94-16.23-1.69-8.15.45-9.56,4.95-5.97,12.11,3,6,4.09,12.95,5.99,19.37q-12.72,4.44-4.87,21.36c-4.69-.87-8.24-.81-11.06-2.22-4.42-2.21-8.59-4.69-12.61-.08-4.07,4.66-1.35,8.96,2.04,12.41,2.65,2.69,6.22,4.45,9.17,6.88,2.26,1.87,4.46,3.94,6.21,6.28,2.56,3.42,4.71,7.16,7.01,10.77.72,1.13,2.06,2.4,1.93,3.46-1.88,15.75,12.34,20.65,19.98,29.97,1.79,2.19,5.12,5.25,4.57,6.77-1.05,2.94-3.96,5.81-6.83,7.34-4.03,2.16-8.99,2.59-13.05,4.72-2.24,1.18-3.44,4.32-5.1,6.58,2.36,1.52,4.99,4.64,7.04,4.29,8.18-1.37,9.42,1.84,10.65,9.45,1.54,9.54,8.12,17.12,16.84,22.5,3.82,2.36,6.61,6.35,9.99,9.48,4.38,4.06,8.73,8.17,13.36,11.93,4.82,3.92,9.84,7.63,15.01,11.09,2.33,1.57,5.26,3.31,7.85,3.22,6.96-.23,10.27,3.39,11.43,9.45.37,1.96-.18,5.07-1.51,6.11-1.51,1.19-5.25,1.71-6.5.68-6.17-5.06-10.85-6.22-14.78,2.47-.5,1.11-4.9.88-7.42.58-4.59-.55-9.1-2.14-13.68-2.33-4.8-.2-8.16-.7-11.84-5.08-2.5-2.98-9.49-2.19-14.48-3.09-.52,3.17-1.1,6.32-1.55,9.5-.29,2.09-.39,4.2-.6,6.52-3.54-2.17-6.96-5.93-9.42-5.38-3.6.8-7.34,4.14-9.53,7.4-3.57,5.33-6.03,11.43-8.78,17.3-1.16,2.48-1.54,5.35-2.85,7.72-4.88,8.8-7.82,17.43,1.15,25.51-12.25,7.44-8.79,20.55-12.91,30.53-.18.44,3.29,3.37,5.17,3.49,5.05.34,5.97,3.02,5.45,7.21-.38,3.01-.69,6.02-.98,9.04-.57,5.98-2.78,10.07-9.84,9.19-8.21-1.02-13.1,2.53-15.01,10.7-.48,2.07-2.41,3.97-4.05,5.56-1.76,1.7-4.59,2.54-5.87,4.47-5.26,7.92-12.72,11.56-21.2,15.66-6.59,3.18-10.08,13.19-19.54,14.58-.56.08-1.06,1.85-1.25,2.89-1.58,8.53-7.39,13.2-16.31,13-6.28-.14-15.44,7.31-15.89,13.54-.09,1.27,2.53,3.75,4.08,3.9,3.11.3,6.4-.33,9.48-1.11,3.14-.8,6.11-2.26,11.05-4.15-.43,7.19-.74,13.26-1.16,19.33-.36,5.11-.3,9.49,7,9.19.68-.03,2.69,6.55,2.21,9.77-.79,5.22-3.14,10.19-4.85,15.32-1.95-.2-5.86-1.75-7.55-.44-1.72,1.33-.91,5.59-1.81,8.37-2.62,8.16-1.52,17.56-8.64,24.3-2.78,2.64-4.2,5.35-2.01,10.61,2.41,5.77.55,13.31.55,20.52,4.29.28,7.22.47,10.78.7-6.32,15.29-12.45,30.11-18.58,44.94-1.06-.16-2.12-.32-3.18-.48,0-3.04.56-6.22-.15-9.09-.82-3.3-2.84-6.29-4.21-9.47-.69-1.59-1.46-3.29-1.56-4.97-.52-8.73-5.62-11.63-13.18-7.87-6.75,3.36-13.85,6.01-20.78,9.02-1.76.77-3.99,1.3-5.06,2.67-8.09,10.38-20.28,11.89-31.65,15.65-7.12,2.36-13.49,7.01-21.46,11.32-.34-3.69-.5-6.96-1-10.18-.28-1.81-.57-4.5-1.76-5.15-8.83-4.88-9.01-13.91-10.62-21.97-2.42-12.11-20.39-23.29-31.89-19.26-1.28.45-2.62,1.18-3.91,1.12-5.44-.25-11.13-1.94-16.22-.81-5.04,1.12-9.47,5-16.68,9.1,1.14-6.89,1.25-11.91,2.89-16.37,2.2-5.97-1.43-8.56-4.92-11.76-4.16-3.8-6.39-.3-8.91,2.13-4.42,4.25-8.47,4.16-12.85-.32-3.47-3.55-7.19-7.02-11.33-9.71-9.34-6.06-16.73-2.18-17.77,8.91-1.18,12.66-8.99,18.38-21.11,16.26-3.22-.57-7.25.28-10.16,1.85-5.01,2.7-9.27,2.73-13.62-.8-6.05-4.9-11.91-4.37-18.1.05-3.74,2.67-8.02,4.57-12.91,7.28-.94-3.22-2.1-5.67-2.32-8.21-.76-9.01-.47-18.19-2.08-27.03-.78-4.26-4.37-8.57-7.87-11.4-1.03-.84-6.03,3.45-9.34,5.14-2.71,1.38-6.08,3.94-8.35,3.27-13.29-3.94-25.45-3.38-36.45,6-4.36,3.72-7.96,1.01-10.58-2.44-4.71-6.2-9.71-9.92-17.6-3.55-5.64-9.36-12.63-8.72-20.66-3.84-1.83,1.11-5.99,1.07-7.25-.22-1.54-1.58-1.12-5.05-1.59-7.69-.56-3.11-.12-7.76-1.97-9.02-4.9-3.34-4.8-7.61-4.53-12.32.99-17.44-.91-34.1-11.41-48.97-1.26-1.79-.66-6.4.83-8.37,6.81-8.92,7.5-16.51.93-25.62-2.41-3.34-5.26-6.45-8.32-9.21-6.17-5.58-12.89-6.61-20.31-1.98-2.82,1.76-6.2,2.61-10.37,4.31.25-5.49.42-9.28.66-14.43,4.53,0,8.86.31,13.12-.15,1.8-.19,3.43-1.99,5.14-3.06-1.22-1.62-2.12-4.1-3.72-4.69-4.35-1.62-8.93-2.89-13.53-3.48-5.33-.68-7.7-2.21-5.3-8,1-2.41,1.23-5.69.44-8.12-.72-2.21-3.33-5.42-5.08-5.41-8.17.06-11.21-5.94-15-11.23-.47-.66-1.27-1.94-1.11-2.09,8.31-8.09-5.62-21.86,7.36-29.03,1.17-.64,1.14-5.56.08-7.69-2.05-4.11-4.43-9.49-8.1-11.1-11.22-4.91-11.71-14.5-12.85-24.19-.16-1.36-.14-2.84-.67-4.05-3.99-9.1-4.36-17.14,3.01-25.48,2.78-3.14,2.68-10.09,1.78-14.91-1.27-6.8-1.07-11.95,5.76-15.27,1.17-.57,2.67-1.57,2.96-2.65,2.73-10.29,7.74-18.45,18.07-22.99,1.8-.79,2.43-5.22,2.79-8.07.37-2.92-.25-5.97-.3-6.84Z"/>
  <g>
    <path class="cls-1" d="M1184.8,891.47c.73,6.2-2.68,15.29,8.06,15.62,6.19.19,12.43-1.61,18.73-3.62,3.28,1.5,8.94,2.22,7.62,9.1-.13.68,5.96,4.12,8.38,3.44,8.64-2.41,14.96-.58,21.51,5.75,4.77,4.61,11.35,7.19,18.72,2.59,2.74-1.71,7.18-.69,10.84-.94,3.46-.24,7.07,0,10.34-.93,4.59-1.31,7.38-1.34,7.62,4.55.32,7.76,3.43,10.09,10.87,8.32,2.33-.55,5.18-1.55,6.48-3.31,8.12-11.05,19.17-8.81,30.07-7.02,9.72,1.6,19.34,3.87,29.07,5.34,2.81.42,5.88-.97,8.85-1.41,7.42-1.1,14.85-2.14,22.55-1.78-5.75,6.18-11.9,9.5-20.37,8.95-5.28-.34-10.7,3.04-16.17,3.62-8.56.92-17.65,2.71-25.75.83-11.68-2.72-21.45,2.49-32.03,4.22-1.35.22-3.32,2.86-3.29,4.35.14,6.72.18,13.6,1.62,20.11,1.96,8.85,20.62,20.18,30.79,19.59,9.51-.55,19.15-.35,28.51-1.86,8.77-1.42,17.2-4.88,25.9-6.93,3.07-.73,6.79-.77,9.71.28,6.54,2.35,12.54,6.33,19.17,8.21,4.69,1.33,6.91,2.85,6.03,7.73-1.53,8.42.01,12.55,10.19,15.33,10.75,2.93,20.89,7.94,32.42,7.61,3.27-.09,6.92.4,9.72-.86,14.81-6.65,26.12-1.69,35.81,9.81,1.42,1.69,2.99,3.24,4.46,4.81-1.38,8.06-7.46,10.94-14.02,11.93-8.29,1.26-12.93,6.23-17.12,12.71-2.13,3.29-5.34,5.88-9.6,8.27,5.13-9.89,2.69-17.32-5.35-22.81-3.82-2.61-8.94-6.15-12.72-5.41-9.7,1.89-15.08-2.58-20.13-9.41-2.99-4.03-6.45-10.98-11.79-6.47-2.8,2.37-1.4,10.38-.86,15.75.24,2.35,2.59,5.28,4.78,6.48,6.67,3.66,5.66,9.24,5.1,14.36-6.78-2.26-13.27-5.37-20.07-6.4-5.25-.8-9.75-1.07-14.11-5.02-2.43-2.2-7.53-1.39-11.39-2.11-3.86-.72-8.42-.6-11.38-2.68-13.59-9.56-13.42-9.79-27.83-5.26-.83-3.29-.67-8.15-2.75-9.48-2.62-1.68-7.11-.25-10.76-.54-10.12-.79-19.05,1.36-26.34,9.06-1.19,1.25-4.24,1.51-6.21,1.12-17.41-3.44-35.3-5.05-51.71-12.55-6.63-3.03-12.41-2.63-18.5,1.79-2.46,1.78-6.71,2.18-9.91,1.69-14.45-2.19-28.82-4.88-43.19-7.51-1.84-.34-3.5-1.61-5.34-2.01-5.06-1.1-10.21-1.75-15.24-2.97-8.72-2.11-17.62-3.85-26-6.95-9.75-3.62-18.74-9.41-28.58-12.67-11.36-3.77-23.29-5.82-34.98-8.58-1.85-.44-4.04-.19-5.56-1.11-18.79-11.37-40.22-4.55-60.05-8.74-2.95-.62-6.66.5-9.57,1.82-18.13,8.22-35.25,7.35-52.02-3.97-4.06-2.74-9.66-3.24-14.58-4.68-6.73-1.97-14.09-2.75-20.13-6.01-16.87-9.09-34.05-11.45-52.36-5.74-2.6.81-5.3,1.47-8,1.7-9.42.79-16.53-6.07-15.12-15.29.36-2.33,3.72-4.52,6.13-6.14,4.26-2.86,6.08-6.44,4.26-11.27-1.7-4.51-4.46-7.27-10.11-5.94-2.39.56-5.26-.69-7.85-1.33-1.29-.32-2.59-1.78-3.67-1.57-10.78,2.06-19.99-.88-28.83-7.22-1.92-1.37-6.59.85-9.9,1.74-5.19,1.4-10.3,3.08-15.87,4.76,2.41-8.09,4.44-14.9,6.05-20.28,5.39-1.08,11.23-1.53,16.37-3.67,1.8-.75,3.32-6.16,2.47-8.55-2.39-6.75-1.46-12.07,2.9-17.66,3.85-4.94,6.71-10.66,10.25-16.44,3.93,8.31,10.86,8.24,18.67,5.32,2.01-.75,5.17-2.02,6.22-1.15,9.46,7.85,21.29,2.18,31.57,5.97,7.82,2.88,10.01.5,11.03-7.29,7.21.91,14.41,1.74,21.57,2.8,1.51.22,3.29.95,4.27,2.04,12,13.55,29.78,14.68,45.27,20.2,5.68,2.02,13.62-2.3,18.96-3.4,4.26,3.58,7.39,6.85,11.1,9.19,6.18,3.9,11.22,8.02,13.65,15.64,2.62,8.23,8.64,13.76,18.11,14.63,8.52.79,16.89,5.14,25.56.16,1.14-.66,3.88.34,5.25,1.39,6.12,4.68,11.9,3.51,18.39.47,11.07-5.19,21.66.44,31.63,3.86,6.81,2.34,12.67,3.67,19.74,2.3,4.81-.93,10.41-.95,14.93.66,5.98,2.13,11.23,2.19,15-2.54,6.83-8.55,13.64-17.32,18.9-26.86,3.1-5.63,6.58-6.79,11.87-6.06,4.05.56,8.06,1.45,13.1,2.37Z"/>
    <path class="cls-1" d="M2056.06,1035.72c-3.41,2.91-6.81,5.83-10.5,8.98,1.98,2.77,3.81,5.35,5.18,7.27-8.23,2.63-16.1,5.42-24.14,7.58-3.64.98-7.93,1.79-11.36.77-7.74-2.3-14.15-.54-21.31,2.59-5.52,2.41-12.32,2-18.58,2.55-3.57.32-8.11-1.36-10.65.28-14.83,9.55-31.8-1.76-47.31,5.65-5.6,2.68-14.8-1.48-22.15-3.34-8.18-2.08-16-3.94-23.76,1.29-1.39.94-4.11,1.43-5.42.7-11.8-6.61-24.79-2.63-37.09-4.52-1.31-.2-2.64-.21-4.33-.34-.26-4.46-.49-8.5-.85-14.54-6.84,2.91-12.64,5.38-20.52,8.73,1.78-3.96,2.21-7.49,4.07-8.56,4.94-2.86,10.59-6.73,15.78-6.49,14.94.68,27.34-7.49,41.27-9.84,15.59-2.63,29.83-1.71,45.27,5.42,13.62,6.29,28.04,15.53,44.87,12.21,2.87-.57,5.57-1.97,8.39-2.87,2.52-.8,5.05-1.78,7.64-2.09,5.49-.66,11.02-1.19,16.54-1.26,2.24-.03,4.68.95,6.69,2.07,1.29.72,1.71,2.87,2.96,3.79,4.43,3.3,27.5,1.66,32-1.79,5.84-4.49,11.85-8.78,17.96-12.9,2.36-1.59,5.2-2.47,7.83-3.68.51.77,1.01,1.55,1.52,2.32Z"/>
    <path class="cls-1" d="M1606.38,1078.86c0-7.35-.01-13.92.02-20.48,0-.53.33-1.05.43-1.58,1.33-7.54,9.17-7.05,13.31-10.96,4.5-4.25,7.55-9,15.12-4.89,5.39,2.93,11.6,4.08,17.61-.85,3.72-3.05,8.02-.02,7.79,4.79-.06,1.34-.66,2.76-.36,4,1.08,4.51,19.34,11.46,23.58,9.79,3.73-1.47,7.96-1.85,12.02-2.21,2.69-.24,6.23,1.58,8.03.4,3.45-2.26,7.23-5.56,8.48-9.24,1.64-4.86-2.94-5.17-6.78-5.6-2.32-.26-4.51-1.83-6.7-2.94-5.56-2.82-11.15-5.58-16.59-8.62-2.94-1.64-5.6-3.8-8.82-6.02,12.74-7.79,25.69-5.81,33.38,4.51,3.88,5.21,7.66,8.19,14.5,4.46,3.47-1.89,7.89-2.05,11.9-2.92,4.18-.91,6.81-.42,8.44,4.75,2.11,6.69,6.46,7.07,10.67,1.02,3.04-4.37,6.46-6.52,10.88-3.86,4.58,2.75,8.08,6.61,4.72,13.02-2.71,5.17-1.11,8.96,5.06,10.31,2.01.44,3.87,1.58,5.79,2.41-.02.83-.04,1.66-.06,2.5-6.07-.29-12.13-.61-18.2-.85-2.08-.08-5.33-.79-6.05.22-5.32,7.45-13.2,5.07-20.58,6.29-.17-2.73.34-5.4-.62-7.35-1.24-2.51-3.4-5.8-5.64-6.22-1.9-.35-4.46,2.92-6.75,4.54-2.39,1.7-4.64,3.72-7.26,4.95-12.4,5.84-26.06,7.37-38.93,11.16-10.86,3.2-20.73,7.51-32.41,5.79-2.43-.36-5.39,3.02-8.15,4.61-2.01,1.16-4.5,3.57-6.06,3.09-7.76-2.38-15.29-5.54-21.78-8Z"/>
    <path class="cls-1" d="M2083.42,1183.96c5.23-4.76,9.45-8.98,14.11-12.63,1.94-1.52,4.97-1.55,7.27-2.72,4.71-2.4,10.89-4.06,13.46-7.98,3.06-4.69-.59-9.47-5.27-13.22-1.77-1.42-2.31-7.23-.88-9.25,4.23-5.96,9.6-11.15,14.83-16.33,1.08-1.07,3.47-.89,5.28-1.14,3.29-.44,7.32.29,9.76-1.36,4.67-3.17,7.92-2.9,11.41,1.24,2.81,3.34,6.02,3.34,9.32.58,9.45-7.92,18.95-15.79,28.35-23.77,4.03-3.42,6.94-7.64,13.94-4.38,3.01,1.4,8.45-2.4,13.26-3.99.51,2.03,1.02,4.03,1.51,5.96-13.75,5.27-15.79,10.05-11.81,24.16.63,2.24-.83,6.97-2.52,7.67-11.59,4.8-18.43,13.91-23.21,24.69-4.08,9.19-9.82,14.09-20.4,12.35-6.49-1.07-11.69,1.11-14.97,7.56-2.68,5.27-7.37,7.09-13.57,7.57-11.95.94-23.78,3.45-35.7,4.89-4.92.59-9.97.1-14.15.1Z"/>
    <path class="cls-1" d="M1765.19,1115.8c12.28-4.9,26.25-7.32,37.57-1.21,12.27,6.62,20.06-.13,29.5-3.61,2.23-.82,4.17-2.45,6.37-3.78,6.01,5.05,6.22,17.58,18.36,12.8.42,11.98,1.99,13.85,13.5,13.53,7-.19,11.15,1.86,14.15,8.51,1.59,3.54,6.29,5.59,9.3,8.6,2.54,2.55,4.67,5.52,6.98,8.31-3.09,2.27-6.06,4.75-9.32,6.74-3.13,1.92-8.09,2.47-9.59,5.13-4.53,8.05-8.93,6.91-16.59,2.98-5.02-2.58-10.29-4.67-15.36-7.15-1.94-.95-3.93-2.09-5.4-3.62-5.4-5.65-9.61-13.33-16.1-16.84-8.95-4.84-19.44-8.47-29.5-9.13-10.14-.67-18.13-2.33-24.14-10.94-2.56-3.67-6.16-6.61-9.72-10.33Z"/>
    <path class="cls-1" d="M2646.82,1034.69c12.47-6.04,11.7-17.7,13.28-28.49,1.03-7.06,1.89-14.27,12.17-14.53,2.68-.07,6.11-4.39,7.67-7.52,2.91-5.85,4.41-12.38,7.03-18.4,2.94-6.75,9.68-9.99,14.45-7.54,6.97,3.58,8.83,8.95,4.38,16.48-8.38,14.16-17.04,28.19-26.25,41.82-6.09,9.02-21.76,17.4-32.73,18.19Z"/>
    <path class="cls-1" d="M1568.28,1074.05c-10.89-2.73-23.35-5.86-35.8-8.99-.08-.61-.17-1.21-.25-1.82,4.81-.45,9.78-.29,14.35-1.58,2.47-.7,5.9-3.78,6-5.93.29-5.83-.97-11.73-1.48-16.35,4.67-3.44,9.41-7.15,14.4-10.51,2.34-1.57,5.15-3.49,7.73-3.46,7.16.08,14.32.99,21.46,1.8,4.91.56,5.54,3.09,3.64,7.52-4.4,10.25-8.23,20.74-12.57,31.01-.59,1.39-2.7,2.34-4.31,3.05-4.09,1.79-8.29,3.33-13.17,5.26Z"/>
    <path class="cls-1" d="M2145.05,1050.15c-5.55-5.42-7.99-9.8-.79-15.21,2.93,8.07,6.52,5.93,11.36,1.61,3.01-2.68,7.64-5.11,11.47-5,14.39.42,28.44.16,42.16-5.28,1.88-.75,5.66,3.29,8.57,5.11-1.64,2.47-2.96,6.77-4.96,7.11-13.37,2.27-27.05,5.81-40.29,4.73-10.75-.88-20.57-5.11-27.52,6.94Z"/>
    <path class="cls-1" d="M2339.9,997.27c-3.39,0-7.16-.77-10.42.19-4.11,1.22-8.72,3.04-11.46,6.09-3.76,4.19-6.9,6.44-12.71,4.55-4.64-1.5-9.65-2.1-14.55-2.54-4.65-.41-9.36-.09-14.11-.09,3.59-12.51,8.54-14.85,20.52-13.91,7.56.6,15.38-2.19,23.08-3.43,4.69-.76,9.51-2.48,14.04-1.92,5.19.63,7.93,4.5,5.58,11.05Z"/>
    <path class="cls-1" d="M2055.8,1227.82c-4.07-2.87-7.62-5.38-11.36-8.03,15.3-3.65,28.84-10,40-21.03,1.71-1.69,4.65-2.14,7.01-3.17.87,2.24,2.81,4.77,2.3,6.63-.53,1.94-3.37,3.31-5.34,4.74-.58.42-2.14-.06-2.36.35-6.71,12.52-23.25,10.27-30.26,20.49Z"/>
    <path class="cls-1" d="M2085.14,1038.22c-5.32.75-10.06,1.42-14.83,2.09,5.17-9.63,15.42-11.46,23.94-5.34,2.91,2.08,7.97,2.62,11.64,1.87,7-1.44,13.7-4.32,19.96-6.42-3.04,4.02-5.91,7.99-9,11.77-.75.91-2.77,2-3.37,1.63-6.41-3.94-10.75,1.03-15.78,3.27-9.08,4.04-11.53,2.53-12.55-8.86Z"/>
    <path class="cls-1" d="M2407.6,1024.92c3.4,0,6.8-.13,10.2.03,7.6.34,15.19,1.15,22.79,1.15,8.26,0,14.63,2.9,20.38,11.28-19.25-1.14-37.22,0-53.36-12.45Z"/>
    <path class="cls-1" d="M1527.14,931.91q-33.16-5.12-36.05-11.42c12.64,4,24.34,7.71,36.05,11.42Z"/>
    <path class="cls-1" d="M2545.6,1009.12c6.4-1.73,12.74-3.87,19.26-4.87,1.46-.22,5.1,3.66,4.96,5.43-.2,2.61-2.95,7.19-4.53,7.15-6.74-.16-13.44-1.71-20.15-2.75.15-1.65.31-3.3.46-4.96Z"/>
    <path class="cls-1" d="M1970.5,1197.26c5.94-2.92,11.79-6.08,17.91-8.55,1.32-.53,3.65,1.43,5.52,2.24-1.23,1.88-2.11,4.92-3.77,5.43-6.07,1.84-12.39,2.84-18.62,4.16-.35-1.09-.7-2.18-1.05-3.28Z"/>
  </g>
  <g>
    <path class="cls-1" d="M747.69,831.76c-6.44-1.15-11.61-1.68-16.53-3.09-3.26-.94-6.25-3.01-9.2-4.83-2.56-1.57-4.75-4.61-7.38-4.97-2.77-.37-6.42,1.02-8.59,2.9-1.23,1.07-.7,4.75-.22,7.1,1.19,5.8,2.81,11.51,4.26,17.26-1.44,1.1-2.88,2.2-4.32,3.3-.65-2.09-.69-4.76-2.05-6.16-10.43-10.8-21.12-21.34-31.72-31.98-2.52-2.53-6.37-4.67-7.29-7.69-6.03-19.86-22.28-30.07-37.81-40.83-25.15-17.43-49.72-35.81-77.91-48.43-12.45-5.57-15.56-17.21-16.29-29.35-.39-6.48-3.39-10.32-8.64-12.78-8.43-3.95-17.96-6.24-25.31-11.59-7.27-5.28-12.8-13.18-18.38-20.48-4.48-5.85-7.85-12.53-11.79-18.8-3.07-4.89-5.84-10.06-9.57-14.4-1.9-2.21-5.65-4.04-8.52-3.99-7.69.14-10.43-4.58-12.96-10.48-2.56-5.96-5.94-11.58-8.41-17.57-1.36-3.3-3.33-8.02-2-10.44,3.33-6.07,2.18-11.27-.77-16.37-6.72-11.62-14.02-22.89-20.66-34.55-2.54-4.46-2.74-10.75-6.09-14.13-6.67-6.71-8.57-15.1-11.93-23.22-2.08-5.02-6.75-9.03-10.51-13.27-10.09-11.39-20.36-22.61-30.41-34.03-1.19-1.36-1.86-3.5-2.06-5.36-.94-9.01-5.24-12.5-14.12-16.86-9.98-4.9-18.43-13.39-30.22-16.12-1.54-.36-2.68-6.46-2.45-9.8.93-13.26-2.02-25.34-7.47-37.5-5.88-13.11-7.74-28-18.11-39.14-1.23-1.32-1.74-4.58-1.01-6.24,3.79-8.56-.95-14.44-6.81-18.49-10.06-6.95-21.06-12.52-31.58-18.83-3.03-1.82-5.67-4.29-8.65-6.21-6.8-4.4-13.62-8.77-20.59-12.9-4-2.37-8.41-3.48-6.9-10.25.61-2.75-2.44-6.95-4.82-9.59-4.6-5.11-7.98-9.74-6.02-17.5,2.39-9.44-5.09-14.13-11.39-19.31-5.16-4.24-9.97-9.06-14.25-14.2-7.23-8.67-13.49-18.16-20.98-26.59-5.8-6.52-13.38-9.11-22.52-6.44-7.19,2.1-12.93.5-18.55-6.08-8.56-10.02-19.55-17.91-28.65-27.52-17.28-18.27-34.08-37-50.81-55.78-5.77-6.47-8.48-14.16-9.52-23.18C8.38,17.77,3.65,10.96.68,3.94.29,3,.07,1.99,0,1.75,5.5,1.11,10.77-.31,15.9.06c8.49.61,17.13,1.57,25.26,3.91,7.47,2.15,14.37,6.29,21.5,9.6,1.24.58,2.73,1.14,3.49,2.16,8.93,12.05,21.96,12.32,35.11,12.6,5.74.12,11.46,1.14,17.2,1.31,1.96.06,4.73-.62,5.83-2,5.89-7.37,11.78-4.11,17.05.11,4.97,3.99,9.05,4.29,15,1.66,4.52-2,10.38-1.17,15.64-1.25,3.82-.06,7.64.47,11.98.77,2.85,5.68,5.03,14.07,10.29,19.45,5.88,6.02,9.76,11.75,12.58,19.85,2.31,6.65,10.06,11.42,17.05,18.75-2.35,8.16,3.53,17.14,9.72,25.37,2.78,3.69,8.57,5.19,13.12,7.42,1.81.89,4.69.42,5.83,1.69,4.58,5.14,7.97,11.57,13.16,15.88,4.39,3.65,10.64,5.08,16.09,7.45,11.54,5.01,24.39,8.23,34.21,15.54,7.95,5.92,14.94,12.41,24.77,15.09,1.53.42,3.54,3.44,3.36,5.04-.9,7.78,2.5,11.97,9.99,13,0,1.42.14,2.25-.02,3.02-2.46,11.68,1.27,17.57,13.04,16.94,10.63-.56,13.01,6.74,17.22,13.32,4.64,7.25,9.91,14.1,14.99,21.06.95,1.3,2.15,2.56,3.51,3.37,3.95,2.36,8.09,6.2,12.07,6.11,2.7-.07,5.27-5.79,7.24-9.47,9.64-4.37,17.51-1.96,23.87,7.58,3.5,5.25,7.78,9.63,16.64,5.77,6.1-2.65,14.59-.32,21.88.7,1.78.25,3.84,3.94,4.32,6.34.37,1.85-.96,5.18-2.54,6.08-6.7,3.82-5.16,6.84-.39,11.21,7.09,6.49,13.35,13.88,20.43,20.38,1.81,1.66,5.36,1.44,8.11,2.08.38-.74.75-1.48,1.13-2.22-1.99-4.07-3.99-8.14-6.33-12.92,2.5.34,5.19-.1,6.03.94,5.81,7.27,14.3,7.5,22.29,9.24,6.86,1.49,7.72,4.06,3.97,10.19-3.5,5.71-7.12,11.65-1.75,18.09,4.19,5.02,8.27,4.33,11.64-1.2,1.67-2.75,3.71-5.41,6.12-7.5,1.08-.94,3.91-1.14,5.18-.38,6.95,4.1,13.72,8.49,20.41,13,2.24,1.51,4.04,3.66,6,5.48-7.44,9.99-6.7,11.85,5.04,13.92,1.06.19,2.97.5,2.99.85.57,9.36,10.89,9.32,14.9,15.46,1.59,2.43,5.23,3.47,7.83,5.29,3.53,2.47,7.94,4.42,10.2,7.78,4.02,5.98,6.72,12.85,10.05,19.5-6.69,3.29-12.74,5.65-18.04,9.16-2.34,1.55-4.35,5.49-4.24,8.25.09,2.06,3.53,4.55,6.01,5.81,3.74,1.9,7.95,2.9,11.81,4.86-10.18,1.48-13.99,8.83-18.86,16.34-4.31,6.64-7.75,11.87-4.66,20.09,2.26,6,5.97,8.78,11.85,9.78,7,1.2,14.92-.04,19.29,8.1.73,1.36,4.91,2.24,6.65,1.46,10.68-4.8,21.07-.21,31.44.82,6.12.61,9.92,4.68,5.84,11.8-1.15,2.01-1.98,4.89-1.49,7.04,2.31,10.05,5.13,19.99,7.15,27.62-2.21,5.78-6.25,11.76-4.84,13.66,2.81,3.77,8.47,5.7,13.25,7.65,6.41,2.61,13.1,4.53,19.68,6.74.21,1.18.42,2.36.63,3.55-3.49,2.28-7.01,4.51-10.45,6.86-2.71,1.85-6.04,3.38-7.75,5.95-1.35,2.02-1.79,6.22-.54,7.94,1.1,1.51,5.08,1.18,7.8,1.21,3.27.04,6.55-.46,9.83-.61,2.48-.11,5.25.66,7.42-.18,14.77-5.67,29.38-1.53,43.98.58,1.53.22,3.41,2.9,3.86,4.74,1.45,5.88,2.41,11.34,8.48,15.17,3.14,1.98,4.92,7.17,5.9,11.25,1.52,6.33,4.73,10.04,10.98,11.95,5.16,1.57,8.76,4.52,5.23,10.95-1.09,1.99-.95,4.9-.74,7.33.54,6.48-.95,11.56-6.56,15.81-5.73,4.34-5.15,9.82-.23,14.99,2.44,2.56,4.53,5.46,4.46,8.17-1.5,6.47-2.7,13.02-4.61,19.36-.97,3.22-2.58,6.81-5.04,8.88-3.94,3.32-6.22,6.69-3.03,11.15,10.01,14.01,6.07,28.4.94,42.41-3.16,8.62-3.8,16.35.65,24.53,1.22,2.25,1.86,5.38,1.42,7.88-2.06,11.78-4.59,23.47-7.18,36.3-4.15-7.24-15.83-4.95-18.76-16.1-1.07-4.06-7.38-9.35-11.39-9.42-6.24-.11-8.1,6.18-7.53,12.44.18,2.01-.74,4.12-1.13,6.03Z"/>
    <path class="cls-1" d="M770.91,529.45c6.37,5.72,12.74,11.44,19.1,17.16,1.25-.65,2.5-1.31,3.75-1.96,1.07-3.09,2.51-6.11,3.1-9.29.53-2.86.11-5.89.11-8.84,1.3-.63,2.61-1.25,3.91-1.88,3.97,4.85,8.06,9.61,11.85,14.59,1.28,1.68,3.04,4.35,2.51,5.83-3.92,11.01,4.37,19.16,6.77,28.5,3.95,15.37,17.12,21.88,31.51,25.69,3.62.96,7.35,1.46,11.36,2.23-5.37,4.17-13.31,7.3-14.53,12.12-1.31,5.2,3.67,11.99,6.07,18.53-5.94,1.42-9.57-1.63-12.97-6.44-3.31-4.68-5.82-9.49-14.42-5.68-4.34,1.92-12.52-3.5-18.21-6.86-1.4-.83-.57-6.85.48-10.07,1.97-6.02,0-10.45-5.48-11.63-6.72-1.44-9.9-4.86-12.75-10.95-8.42-17.98-8.8-17.68-30.24-17.78-4.44-.02-8.88-1.4-13.32-2.15,2.85-3.62,5.96-7.07,8.46-10.91,1.81-2.77,4.17-6.19,3.92-9.11-.82-9.43,2.86-14.07,12.24-14.31-1.08,1.07-2.15,2.15-3.23,3.22Z"/>
    <path class="cls-1" d="M703.19,350.01c-1.86-.61-5.37-1.77-8.8-2.9-1.01-11.31-3.22-13.45-12.64-12.42-6.5.71-8.61,4.66-6.28,10.92,1.19,3.21,1.62,6.7,1,10.51-2.65-5.21-4.66-10.92-8.18-15.46-2.19-2.83-6.66-3.89-10.1-5.74-1.21,2.81-2.42,5.61-3.76,8.7-1.98-.17-4.88-.41-8.3-.7-.95-6.17-2.43-12.53,8.08-11.99,1.76.09,3.51-2.84,5.49-3.23,3.67-.72,7.82.26,11.21-.99,8.28-3.05,16.99,6.64,25.08-1.27,1.03-1.01,5.49-.4,6.54.91,1.78,2.23,2.94,5.63,2.88,8.51-.11,4.89-1.36,9.76-2.22,15.14Z"/>
    <path class="cls-1" d="M678.55,438.23c9.39.18,12.43-3.65,14.14-11.44,1.2-5.5,7.09-9.98,10.89-14.91-1.58-8.86-8.19-11.4-15.98-12.22-4.73-.5-6.44-2.23-4.33-7.08,1.28-2.96,1.42-6.41,2.34-9.55,1.69-5.79,4.95-6.57,9.56-2.84-6.34,11.45-3.34,12.82,18.06,25.37-1.72,8.12-.08,11.42,10.98,21.37-2.67,1.06-5,1.98-7.42,2.94-.96-1.21-1.95-1.95-2.26-2.92-1.74-5.34-3.96-8.89-10.65-5.8-5.89,2.72-9.94,5.7-7.52,13.05,2.18,6.6,1.97,12.97-3.81,19.1-2.02-2.55-3.8-5.1-5.89-7.38-2.15-2.34-4.6-4.4-8.08-7.69Z"/>
    <path class="cls-1" d="M976.67,629.41c-6.91.68-9.54,3.92-10.18,10.78-.28,3.02-6,5.54-9.7,8.67-2.03-3.13-3.37-4.84-4.33-6.73-2.78-5.5-4.74-12.69-11.67-2.91-1.41,1.99-5.3,2.21-8.54,3.43-.77-2.3-1.66-4.02-1.89-5.83-.56-4.29-2.47-6.16-7.09-6.09-2.08.03-4.19-2.2-6.29-3.41,1.67-1.58,3.08-3.95,5.05-4.59,6.72-2.19,11.99-4.62,8.44-13.35-.86-2.11-.13-4.88-.13-7.25,24.04-5.35,44.92,6.68,46.33,27.28Z"/>
    <path class="cls-1" d="M195.74,367.11c-2.67-3.94-6.59-7.44-7.54-11.61-1.79-7.91-5.96-12.21-13.31-15.15-3.17-1.27-5.21-5.54-7.59-8.59-5.68-7.25-11.27-14.58-16.45-21.3,3.91-2.21,9.04-5.1,15.05-8.5-.89-.3-.22-.28.1.07,11.06,11.88,20.35,25.51,35.14,33.64,5.97,3.28,4.5,7.57.8,12.92-3.23,4.68-3.87,11.13-6.2,18.52Z"/>
    <path class="cls-1" d="M265.4,481.27c2.98.67,4.8,1.52,6.55,1.4,7.81-.54,14.48-.47,11.06,10.79-.52,1.72,1.5,4.53,2.88,6.45,5.56,7.71,11.9,14.61,12.36,25.29.18,4.15,5.55,8.07,8.65,12.22-9.28,3.79-20.63-.24-26.08-8.36-3.66-5.46-8.43-10.24-11.64-15.92-2.43-4.31-3.94-9.48-4.47-14.42-.6-5.55.37-11.27.68-17.44Z"/>
    <path class="cls-1" d="M45.5,212.79c.73-6.36,1.27-11.03,1.87-16.23,15.73,12.02,31.53,24.08,47.32,36.15-.18.16-.36.33-.55.49-16.92-7.1-33.83-14.2-48.65-20.41Z"/>
    <path class="cls-1" d="M366.05,600.81c11.45,16.46,27.04,27.46,30.85,46.76-2.72,1.48-6.7,3.27-8.26-3.59-.17-.77-.62-1.84-1.23-2.1-8.1-3.44-11.06-10.21-12.2-18.28-.1-.68-.94-1.72-1.55-1.81-12.95-1.96-9.3-10.85-7.61-20.98Z"/>
    <path class="cls-1" d="M238.17,447.79c8.06-15.89,5.7-29.35-9.45-39.69.99-.72,1.99-1.44,2.98-2.16,5.79,4.36,16.41,8.56,16.55,13.1.78,24.51-.86,26.91-10.08,28.75Z"/>
    <path class="cls-1" d="M612.84,327.87c2.5,5.62,4.17,11.85,7.74,16.68,3.65,4.93,9.16,8.49,13.64,12.45-3.91.69-7.21,1.75-10.48,1.68-2.38-.06-6.39-1.13-6.82-2.6-2.67-9.03-4.54-18.31-6.68-27.5.87-.24,1.73-.47,2.6-.71Z"/>
    <path class="cls-1" d="M346.06,581.41c-12.47-.92-16.41-6.55-15.05-20.44,13.19,1.17,6.28,16.56,15.05,20.44Z"/>
    <path class="cls-1" d="M254.23,398.18c5.45.24,10.9.49,17.88.8-7.26,8.57-12.63,5.34-17.88-.8Z"/>
  </g>
</svg>