<?xml version="1.0" encoding="UTF-8"?>
<svg id="Layer_2" data-name="Layer 2" xmlns="http://www.w3.org/2000/svg" viewBox="0 0 1948.68 393.57">
  <g id="Layer_4" data-name="Layer 4">
    <path d="M420.27,50.22c.73,6.2-2.68,15.29,8.06,15.62,6.19.19,12.43-1.61,18.73-3.62,3.28,1.5,8.94,2.22,7.62,9.1-.13.68,5.96,4.12,8.38,3.44,8.64-2.41,14.96-.58,21.51,5.75,4.77,4.61,11.35,7.19,18.72,2.59,2.74-1.71,7.18-.69,10.84-.94,3.46-.24,7.07,0,10.34-.93,4.59-1.31,7.38-1.34,7.62,4.55.32,7.76,3.43,10.09,10.87,8.32,2.33-.55,5.18-1.55,6.48-3.31,8.12-11.05,19.17-8.81,30.07-7.02,9.72,1.6,19.34,3.87,29.07,5.34,2.81.42,5.88-.97,8.85-1.41,7.42-1.1,14.85-2.14,22.55-1.78-5.75,6.18-11.9,9.5-20.37,8.95-5.28-.34-10.7,3.04-16.17,3.62-8.56.92-17.65,2.71-25.75.83-11.68-2.72-24.14-6.94-34.72-5.21-1.35.22-.63,12.3-.6,13.78.14,6.72.18,13.6,1.62,20.11,1.96,8.85,20.62,20.18,30.79,19.59,9.51-.55,19.15-.35,28.51-1.86,8.77-1.42,17.2-4.88,25.9-6.93,3.07-.73,6.79-.77,9.71.28,6.54,2.35,12.54,6.33,19.17,8.21,4.69,1.33,6.91,2.85,6.03,7.73-1.53,8.42-2.53,11.77,7.65,14.55,10.75,2.93,23.44,8.72,34.96,8.4,3.27-.09,6.92.4,9.72-.86,14.81-6.65,26.12-1.69,35.81,9.81,1.42,1.69,2.99,3.24,4.46,4.81-1.38,8.06-7.46,10.94-14.02,11.93-8.29,1.26-12.93,6.23-17.12,12.71-2.13,3.29-5.34,5.88-9.6,8.27,5.13-9.89,2.69-17.32-5.35-22.81-3.82-2.61-8.94-6.15-12.72-5.41-9.7,1.89-15.08-2.58-20.13-9.41-2.99-4.03-.68-21.95-6.02-17.45-2.8,2.37-7.17,21.36-6.63,26.72.24,2.35,2.59,5.28,4.78,6.48,6.67,3.66,5.66,9.24,5.1,14.36-6.78-2.26-13.27-5.37-20.07-6.4-5.25-.8-9.75-1.07-14.11-5.02-2.43-2.2-7.53-1.39-11.39-2.11-3.86-.72-8.42-.6-11.38-2.68-13.59-9.56-13.42-9.79-27.83-5.26-.83-3.29-.67-8.15-2.75-9.48-2.62-1.68-7.11-.25-10.76-.54-10.12-.79-19.05,1.36-26.34,9.06-1.19,1.25-4.24,1.51-6.21,1.12-17.41-3.44-35.3-5.05-51.71-12.55-6.63-3.03-12.41-2.63-18.5,1.79-2.46,1.78-6.71,2.18-9.91,1.69-14.45-2.19-28.82-4.88-43.19-7.51-1.84-.34-3.5-1.61-5.34-2.01-5.06-1.1-10.21-1.75-15.24-2.97-8.72-2.11-17.62-3.85-26-6.95-9.75-3.62-18.74-9.41-28.58-12.67-11.36-3.77-23.29-5.82-34.98-8.58-1.85-.44-4.04-.19-5.56-1.11-18.79-11.37-40.22-4.55-60.05-8.74-2.95-.62-6.66.5-9.57,1.82-18.13,8.22-35.25,7.35-52.02-3.97-4.06-2.74-9.66-3.24-14.58-4.68-6.73-1.97-14.09-2.75-20.13-6.01-16.87-9.09-34.05-11.45-52.36-5.74-2.6.81-5.3,1.47-8,1.7-9.42.79-16.53-6.07-15.12-15.29.36-2.33,3.72-4.52,6.13-6.14,4.26-2.86,6.08-6.44,4.26-11.27-1.7-4.51-4.46-7.27-10.11-5.94-2.39.56-5.26-.69-7.85-1.33-1.29-.32-2.59-1.78-3.67-1.57-10.78,2.06-19.99-.88-28.83-7.22-1.92-1.37-6.59.85-9.9,1.74-5.19,1.4-10.3,3.08-15.87,4.76,2.41-8.09,4.44-14.9,6.05-20.28,5.39-1.08,11.23-1.53,16.37-3.67,1.8-.75,3.32-6.16,2.47-8.55-2.39-6.75-1.46-12.07,2.9-17.66,3.85-4.94,6.71-10.66,10.25-16.44,3.93,8.31,10.86,8.24,18.67,5.32,2.01-.75,5.17-2.02,6.22-1.15,9.46,7.85,21.29,2.18,31.57,5.97,7.82,2.88,10.01.5,11.03-7.29,7.21.91,14.41,1.74,21.57,2.8,1.51.22,3.29.95,4.27,2.04,12,13.55,29.78,14.68,45.27,20.2,5.68,2.02,13.62-2.3,18.96-3.4,4.26,3.58,7.39,6.85,11.1,9.19,6.18,3.9,11.22,8.02,13.65,15.64,2.62,8.23,8.64,13.76,18.11,14.63,8.52.79,16.89,5.14,25.56.16,1.14-.66,3.88.34,5.25,1.39,6.12,4.68,11.9,3.51,18.39.47,11.07-5.19,21.66.44,31.63,3.86,6.81,2.34,12.67,3.67,19.74,2.3,4.81-.93,10.41-.95,14.93.66,5.98,2.13,11.23,2.19,15-2.54,6.83-8.55,13.64-17.32,18.9-26.86,3.1-5.63,6.58-6.79,11.87-6.06,4.05.56,8.06,1.45,13.1,2.37Z" style="fill: #aed661; stroke: #231f20; stroke-miterlimit: 10; stroke-width: 10px;"/>
    <path d="M671.75,169.56c10.75,2.93,23.44,8.72,34.96,8.4,3.27-.09,6.92.4,9.72-.86,14.81-6.65,26.12-1.69,35.81,9.81,1.42,1.69,2.99,3.24,4.46,4.81-1.38,8.06-7.46,10.94-14.02,11.93-8.29,1.26-12.93,6.23-17.12,12.71-2.13,3.29-5.34,5.88-9.6,8.27,5.13-9.89,2.69-17.32-5.35-22.81-3.82-2.61-8.94-6.15-12.72-5.41-9.7,1.89-15.08-2.58-20.13-9.41-2.99-4.03-.68-21.95-6.02-17.45" style="fill: #808285; stroke: #231f20; stroke-miterlimit: 10; stroke-width: 10px;"/>
    <path d="M1291.53,194.46c-3.41,2.91-6.81,5.83-10.5,8.98,1.98,2.77,3.81,5.35,5.18,7.27-8.23,2.63-16.1,5.42-24.14,7.58-3.64.98-7.93,1.79-11.36.77-7.74-2.3-14.15-.54-21.31,2.59-5.52,2.41-12.32,2-18.58,2.55-3.57.32-8.11-1.36-10.65.28-14.83,9.55-31.8-1.76-47.31,5.65-5.6,2.68-14.8-1.48-22.15-3.34-8.18-2.08-16-3.94-23.76,1.29-1.39.94-4.11,1.43-5.42.7-11.8-6.61-24.79-2.63-37.09-4.52-1.31-.2-2.64-.21-4.33-.34-.26-4.46-.49-8.5-.85-14.54-6.84,2.91-12.64,5.38-20.52,8.73,1.78-3.96,2.21-7.49,4.07-8.56,4.94-2.86,10.59-6.73,15.78-6.49,14.94.68,27.34-7.49,41.27-9.84,15.59-2.63,29.83-1.71,45.27,5.42,13.62,6.29,28.04,15.53,44.87,12.21,2.87-.57,5.57-1.97,8.39-2.87,2.52-.8,5.05-1.78,7.64-2.09,5.49-.66,11.02-1.19,16.54-1.26,2.24-.03,4.68.95,6.69,2.07,1.29.72,1.71,2.87,2.96,3.79,4.43,3.3,27.5,1.66,32-1.79,5.84-4.49,11.85-8.78,17.96-12.9,2.36-1.59,5.2-2.47,7.83-3.68.51.77,1.01,1.55,1.52,2.32Z" style="fill: #808285; stroke: #231f20; stroke-miterlimit: 10; stroke-width: 10px;"/>
    <path d="M841.85,237.6c0-7.35-.01-13.92.02-20.48,0-.53.33-1.05.43-1.58,1.33-7.54,9.17-7.05,13.31-10.96,4.5-4.25,7.55-9,15.12-4.89,5.39,2.93,11.6,4.08,17.61-.85,3.72-3.05,8.02-.02,7.79,4.79-.06,1.34-.66,2.76-.36,4,1.08,4.51,19.34,11.46,23.58,9.79,3.73-1.47,7.96-1.85,12.02-2.21,2.69-.24,6.23,1.58,8.03.4,3.45-2.26,7.23-5.56,8.48-9.24,1.64-4.86-2.94-5.17-6.78-5.6-2.32-.26-4.51-1.83-6.7-2.94-5.56-2.82-11.15-5.58-16.59-8.62-2.94-1.64-5.6-3.8-8.82-6.02,12.74-7.79,25.69-5.81,33.38,4.51,3.88,5.21,7.66,8.19,14.5,4.46,3.47-1.89,7.89-2.05,11.9-2.92,4.18-.91,6.81-.42,8.44,4.75,2.11,6.69,6.46,7.07,10.67,1.02,3.04-4.37,6.46-6.52,10.88-3.86,4.58,2.75,8.08,6.61,4.72,13.02-2.71,5.17-1.11,8.96,5.06,10.31,2.01.44,3.87,1.58,5.79,2.41-.02.83-.04,1.66-.06,2.5-6.07-.29-12.13-.61-18.2-.85-2.08-.08-5.33-.79-6.05.22-5.32,7.45-13.2,5.07-20.58,6.29-.17-2.73.34-5.4-.62-7.35-1.24-2.51-3.4-5.8-5.64-6.22-1.9-.35-4.46,2.92-6.75,4.54-2.39,1.7-4.64,3.72-7.26,4.95-12.4,5.84-26.06,7.37-38.93,11.16-10.86,3.2-20.73,7.51-32.41,5.79-2.43-.36-5.39,3.02-8.15,4.61-2.01,1.16-4.5,3.57-6.06,3.09-7.76-2.38-15.29-5.54-21.78-8Z" style="fill: #808285; stroke: #231f20; stroke-miterlimit: 10; stroke-width: 10px;"/>
    <path d="M1318.89,342.71c5.23-4.76,9.45-8.98,14.11-12.63,1.94-1.52,4.97-1.55,7.27-2.72,4.71-2.4,10.89-4.06,13.46-7.98,3.06-4.69-.59-9.47-5.27-13.22-1.77-1.42-2.31-7.23-.88-9.25,4.23-5.96,9.6-11.15,14.83-16.33,1.08-1.07,3.47-.89,5.28-1.14,3.29-.44,7.32.29,9.76-1.36,4.67-3.17,7.92-2.9,11.41,1.24,2.81,3.34,6.02,3.34,9.32.58,9.45-7.92,18.95-15.79,28.35-23.77,4.03-3.42,6.94-7.64,13.94-4.38,3.01,1.4,8.45-2.4,13.26-3.99.51,2.03,1.02,4.03,1.51,5.96-13.75,5.27-15.79,10.05-11.81,24.16.63,2.24-.83,6.97-2.52,7.67-11.59,4.8-18.43,13.91-23.21,24.69-4.08,9.19-9.82,14.09-20.4,12.35-6.49-1.07-11.69,1.11-14.97,7.56-2.68,5.27-7.37,7.09-13.57,7.57-11.95.94-23.78,3.45-35.7,4.89-4.92.59-9.97.1-14.15.1Z" style="fill: #808285; stroke: #231f20; stroke-miterlimit: 10; stroke-width: 10px;"/>
    <path d="M1000.66,274.55c12.28-4.9,26.25-7.32,37.57-1.21,12.27,6.62,20.06-.13,29.5-3.61,2.23-.82,4.17-2.45,6.37-3.78,6.01,5.05,6.22,17.58,18.36,12.8.42,11.98,1.99,13.85,13.5,13.53,7-.19,11.15,1.86,14.15,8.51,1.59,3.54,6.29,5.59,9.3,8.6,2.54,2.55,4.67,5.52,6.98,8.31-3.09,2.27-6.06,4.75-9.32,6.74-3.13,1.92-8.09,2.47-9.59,5.13-4.53,8.05-8.93,6.91-16.59,2.98-5.02-2.58-10.29-4.67-15.36-7.15-1.94-.95-3.93-2.09-5.4-3.62-5.4-5.65-9.61-13.33-16.1-16.84-8.95-4.84-19.44-8.47-29.5-9.13-10.14-.67-18.13-2.33-24.14-10.94-2.56-3.67-6.16-6.61-9.72-10.33Z" style="fill: #808285; stroke: #231f20; stroke-miterlimit: 10; stroke-width: 10px;"/>
    <path d="M1882.29,193.43c12.47-6.04,11.7-17.7,13.28-28.49,1.03-7.06,1.89-14.27,12.17-14.53,2.68-.07,6.11-4.39,7.67-7.52,2.91-5.85,4.41-12.38,7.03-18.4,2.94-6.75,9.68-9.99,14.45-7.54,6.97,3.58,8.83,8.95,4.38,16.48-8.38,14.16-17.04,28.19-26.25,41.82-6.09,9.02-21.76,17.4-32.73,18.19Z" style="fill: #808285; stroke: #231f20; stroke-miterlimit: 10; stroke-width: 10px;"/>
    <path d="M803.75,232.79c-10.89-2.73-23.35-5.86-35.8-8.99-.08-.61-.17-1.21-.25-1.82,4.81-.45,9.78-.29,14.35-1.58,2.47-.7,5.9-3.78,6-5.93.29-5.83-.97-11.73-1.48-16.35,4.67-3.44,9.41-7.15,14.4-10.51,2.34-1.57,5.15-3.49,7.73-3.46,7.16.08,14.32.99,21.46,1.8,4.91.56,5.54,3.09,3.64,7.52-4.4,10.25-8.23,20.74-12.57,31.01-.59,1.39-2.7,2.34-4.31,3.05-4.09,1.79-8.29,3.33-13.17,5.26Z" style="fill: #808285; stroke: #231f20; stroke-miterlimit: 10; stroke-width: 10px;"/>
    <path d="M1380.51,208.89c-5.55-5.42-7.99-9.8-.79-15.21,2.93,8.07,6.52,5.93,11.36,1.61,3.01-2.68,7.64-5.11,11.47-5,14.39.42,28.44.16,42.16-5.28,1.88-.75,5.66,3.29,8.57,5.11-1.64,2.47-2.96,6.77-4.96,7.11-13.37,2.27-27.05,5.81-40.29,4.73-10.75-.88-20.57-5.11-27.52,6.94Z" style="fill: #808285; stroke: #231f20; stroke-miterlimit: 10; stroke-width: 10px;"/>
    <path d="M1575.37,156.01c-3.39,0-7.16-.77-10.42.19-4.11,1.22-8.72,3.04-11.46,6.09-3.76,4.19-6.9,6.44-12.71,4.55-4.64-1.5-9.65-2.1-14.55-2.54-4.65-.41-9.36-.09-14.11-.09,3.59-12.51,8.54-14.85,20.52-13.91,7.56.6,15.38-2.19,23.08-3.43,4.69-.76,9.51-2.48,14.04-1.92,5.19.63,7.93,4.5,5.58,11.05Z" style="fill: #808285; stroke: #231f20; stroke-miterlimit: 10; stroke-width: 10px;"/>
    <path d="M1291.27,386.56c-4.07-2.87-7.62-5.38-11.36-8.03,15.3-3.65,28.84-10,40-21.03,1.71-1.69,4.65-2.14,7.01-3.17.87,2.24,2.81,4.77,2.3,6.63-.53,1.94-3.37,3.31-5.34,4.74-.58.42-2.14-.06-2.36.35-6.71,12.52-23.25,10.27-30.26,20.49Z" style="fill: #808285; stroke: #231f20; stroke-miterlimit: 10; stroke-width: 10px;"/>
    <path d="M1320.61,196.97c-5.32.75-10.06,1.42-14.83,2.09,5.17-9.63,15.42-11.46,23.94-5.34,2.91,2.08,7.97,2.62,11.64,1.87,7-1.44,13.7-4.32,19.96-6.42-3.04,4.02-5.91,7.99-9,11.77-.75.91-2.77,2-3.37,1.63-6.41-3.94-10.75,1.03-15.78,3.27-9.08,4.04-11.53,2.53-12.55-8.86Z" style="fill: #808285; stroke: #231f20; stroke-miterlimit: 10; stroke-width: 10px;"/>
    <path d="M1643.07,183.66c3.4,0,6.8-.13,10.2.03,7.6.34,15.19,1.15,22.79,1.15,8.26,0,14.63,2.9,20.38,11.28-19.25-1.14-37.22,0-53.36-12.45Z" style="fill: #808285; stroke: #231f20; stroke-miterlimit: 10; stroke-width: 10px;"/>
    <path d="M1781.06,167.87c6.4-1.73,12.74-3.87,19.26-4.87,1.46-.22,5.1,3.66,4.96,5.43-.2,2.61-2.95,7.19-4.53,7.15-6.74-.16-13.44-1.71-20.15-2.75.15-1.65.31-3.3.46-4.96Z" style="fill: #808285; stroke: #231f20; stroke-miterlimit: 10; stroke-width: 10px;"/>
    <path d="M1205.96,356.01c5.94-2.92,11.79-6.08,17.91-8.55,1.32-.53,3.65,1.43,5.52,2.24-1.23,1.88-2.11,4.92-3.77,5.43-6.07,1.84-12.39,2.84-18.62,4.16-.35-1.09-.7-2.18-1.05-3.28Z" style="fill: #808285; stroke: #231f20; stroke-miterlimit: 10; stroke-width: 10px;"/>
    <path d="M542.8,94.07c2.33-.55,5.18-1.55,6.48-3.31,8.12-11.05,19.17-8.81,30.07-7.02,9.72,1.6,19.34,3.87,29.07,5.34,2.81.42,5.88-.97,8.85-1.41,7.42-1.1,14.85-2.14,22.55-1.78-5.75,6.18-11.9,9.5-20.37,8.95-5.28-.34-10.7,3.04-16.17,3.62-8.56.92-17.65,2.71-25.75.83-11.68-2.72-24.14-6.94-34.72-5.21" style="fill: #808285; stroke: #231f20; stroke-miterlimit: 10; stroke-width: 10px;"/>
  </g>
</svg>