<?xml version="1.0" encoding="UTF-8"?>
<svg id="Layer_2" data-name="Layer 2" xmlns="http://www.w3.org/2000/svg" viewBox="0 0 756.32 637.36">
  <g id="Layer_5" data-name="Layer 5">
    <path d="M41.88,185.63c7.3-4.84,13.23-8.77,19.17-12.7.49.26.98.51,1.48.77-3.19,5.65-6.39,11.3-10.03,17.74,3.76,1.38,6.99,2.56,11.07,4.06-2.59,11.42,2.98,18.87,13.6,23.55,1.84.81,3.88,2.91,4.34,4.78,2.62,10.54,11.21,15.11,19.31,20.27,2.09,1.33,4.29,2.58,6.1,4.23,12.49,11.35,20.78,12.29,34.89,3.14,3.61-2.34,5.59-2.12,9.77-.36,4.51,1.9,11.44,1.09,16.08-1.12,6.18-2.94,9.86-2.07,14.7,2.21,4.41,3.9,9.94,6.67,15.31,9.26,1.25.6,4.39-1.06,5.65-2.54,1.69-1.99,2.4-4.81,3.5-7.23,13.72,5.89,24.25-2.89,35.14-7.71,2.91-1.29,3.36-8.71,4.43-13.43,1.74-7.66,7.76-11.76,15.49-10.79,2.64.33,5.86-.29,8.16-1.62,10.86-6.28,22.19-6.1,33.95-4.25-.43,3.76-.75,6.59-1.08,9.48,10.76,2.59,20.8,5.05,30.88,7.37,1.27.29,3.14.4,3.99-.3,4.86-4.03,7.88-1.57,11.89,1.84,2.16,1.84,7,2.15,9.94,1.13,9.67-3.35,19.03-7.61,28.6-11.56,4.77,7.96,6.63,8.27,13.61,1.14,4.39-4.49,8.12-7.49,15.66-5.69,11.59,2.76,13.6-.34,13.91-14.32,3.9-4.68,7.18-8.02,9.74-11.85,2.79-4.17,3.51-8.26-1.11-12.44-3.88-3.5-3.51-7.36,2.22-9.26,1.26-.42,3.26-.53,3.66-1.38,4.37-9.37,13.33-11.21,21.76-14.61,3.14-1.27,5.68-6.41,6.43-10.19.37-1.88-3.52-5.32-6.17-6.94-4.27-2.63-4.38-6.19-.58-10.54,3.02-3.47,5.11-7.77,7.47-11.79,2.78-4.74,4.91-9.73,11.91-9.76,5.39-.03,8.88-3.36,10.71-8.68,1.87-5.44,4.37-10.66,6.6-15.97,2.42-5.75,3.9-10.85-1.26-16.69-2.16-2.44-1.7-8.58-.46-12.39,3.48-10.67,8.93-20.76,7.41-32.6-.18-1.39.93-3.18,1.9-4.42,2.36-3.01,23-7.02,26.39-5.04,7.72,4.5,15.14,6.46,22.61-.6,1.03-.98,3.41-.68,5.16-.7,1.05-.01,2.38,1.06,3.12.69,15.6-7.74,30.63,2.99,46.48,1.49,11.89-1.12,26.78-4.67,37.52,7.45,1.46,1.65,6.94-.26,12.15-.64,2.9,2.71,6.99,6.55,12.82,12.01-7.2-.81-11.75-1.94-16.23-1.69-8.15.45-9.56,4.95-5.97,12.11,3,6,4.09,12.95,5.99,19.37q-12.72,4.44-4.87,21.36c-4.69-.87-8.24-.81-11.06-2.22-4.42-2.21-8.59-4.69-12.61-.08-4.07,4.66-1.35,8.96,2.04,12.41,2.65,2.69,6.22,4.45,9.17,6.88,2.26,1.87,4.46,3.94,6.21,6.28,2.56,3.42,4.71,7.16,7.01,10.77.72,1.13,2.06,2.4,1.93,3.46-1.88,15.75,12.34,20.65,19.98,29.97,1.79,2.19,5.12,5.25,4.57,6.77-1.05,2.94-3.96,5.81-6.83,7.34-4.03,2.16-8.99,2.59-13.05,4.72-2.24,1.18-3.44,4.32-5.1,6.58,2.36,1.52,4.99,4.64,7.04,4.29,8.18-1.37,9.42,1.84,10.65,9.45,1.54,9.54,8.12,17.12,16.84,22.5,3.82,2.36,6.61,6.35,9.99,9.48,4.38,4.06,8.73,8.17,13.36,11.93,4.82,3.92,9.84,7.63,15.01,11.09,2.33,1.57,5.26,3.31,7.85,3.22,6.96-.23,10.27,3.39,11.43,9.45.37,1.96-.18,5.07-1.51,6.11-1.51,1.19-5.25,1.71-6.5.68-6.17-5.06-10.85-6.22-14.78,2.47-.5,1.11-4.9.88-7.42.58-4.59-.55-9.1-2.14-13.68-2.33-4.8-.2-8.16-.7-11.84-5.08-2.5-2.98-9.49-2.19-14.48-3.09-.52,3.17-1.1,6.32-1.55,9.5-.29,2.09-.39,4.2-.6,6.52-3.54-2.17-6.96-5.93-9.42-5.38-3.6.8-7.34,4.14-9.53,7.4-3.57,5.33-6.03,11.43-8.78,17.3-1.16,2.48-1.54,5.35-2.85,7.72-4.88,8.8-7.82,17.43,1.15,25.51-12.25,7.44-8.79,20.55-12.91,30.53-.18.44,3.29,3.37,5.17,3.49,5.05.34,5.97,3.02,5.45,7.21-.38,3.01-.69,6.02-.98,9.04-.57,5.98-2.78,10.07-9.84,9.19-8.21-1.02-13.1,2.53-15.01,10.7-.48,2.07-2.41,3.97-4.05,5.56-1.76,1.7-4.59,2.54-5.87,4.47-5.26,7.92-12.72,11.56-21.2,15.66-6.59,3.18-10.08,13.19-19.54,14.58-.56.08-1.06,1.85-1.25,2.89-1.58,8.53-7.39,13.2-16.31,13-6.28-.14-15.44,7.31-15.89,13.54-.09,1.27,2.53,3.75,4.08,3.9,3.11.3,6.4-.33,9.48-1.11,3.14-.8,6.11-2.26,11.05-4.15-.43,7.19-.74,13.26-1.16,19.33-.36,5.11-.3,9.49,7,9.19.68-.03,2.69,6.55,2.21,9.77-.79,5.22-3.14,10.19-4.85,15.32-1.95-.2-5.86-1.75-7.55-.44-1.72,1.33-.91,5.59-1.81,8.37-2.62,8.16-1.52,17.56-8.64,24.3-2.78,2.64-4.2,5.35-2.01,10.61,2.41,5.77.55,13.31.55,20.52,4.29.28,7.22.47,10.78.7-6.32,15.29-12.45,30.11-18.58,44.94-1.06-.16-2.12-.32-3.18-.48,0-3.04.56-6.22-.15-9.09-.82-3.3-2.84-6.29-4.21-9.47-.69-1.59-1.46-3.29-1.56-4.97-.52-8.73-5.62-11.63-13.18-7.87-6.75,3.36-13.85,6.01-20.78,9.02-1.76.77-3.99,1.3-5.06,2.67-8.09,10.38-20.28,11.89-31.65,15.65-7.12,2.36-13.49,7.01-21.46,11.32-.34-3.69-.5-6.96-1-10.18-.28-1.81-.57-4.5-1.76-5.15-8.83-4.88-9.01-13.91-10.62-21.97-2.42-12.11-20.39-23.29-31.89-19.26-1.28.45-2.62,1.18-3.91,1.12-5.44-.25-11.13-1.94-16.22-.81-5.04,1.12-9.47,5-16.68,9.1,1.14-6.89,1.25-11.91,2.89-16.37,2.2-5.97-1.43-8.56-4.92-11.76-4.16-3.8-6.39-.3-8.91,2.13-4.42,4.25-8.47,4.16-12.85-.32-3.47-3.55-7.19-7.02-11.33-9.71-9.34-6.06-16.73-2.18-17.77,8.91-1.18,12.66-8.99,18.38-21.11,16.26-3.22-.57-7.25.28-10.16,1.85-5.01,2.7-9.27,2.73-13.62-.8-6.05-4.9-11.91-4.37-18.1.05-3.74,2.67-8.02,4.57-12.91,7.28-.94-3.22-2.1-5.67-2.32-8.21-.76-9.01-.47-18.19-2.08-27.03-.78-4.26-4.37-8.57-7.87-11.4-1.03-.84-6.03,3.45-9.34,5.14-2.71,1.38-6.08,3.94-8.35,3.27-13.29-3.94-25.45-3.38-36.45,6-4.36,3.72-7.96,1.01-10.58-2.44-4.71-6.2-9.71-9.92-17.6-3.55-5.64-9.36-12.63-8.72-20.66-3.84-1.83,1.11-5.99,1.07-7.25-.22-1.54-1.58-1.12-5.05-1.59-7.69-.56-3.11-.12-7.76-1.97-9.02-4.9-3.34-4.8-7.61-4.53-12.32.99-17.44-.91-34.1-11.41-48.97-1.26-1.79-.66-6.4.83-8.37,6.81-8.92,7.5-16.51.93-25.62-2.41-3.34-5.26-6.45-8.32-9.21-6.17-5.58-12.89-6.61-20.31-1.98-2.82,1.76-6.2,2.61-10.37,4.31.25-5.49.42-9.28.66-14.43,4.53,0,8.86.31,13.12-.15,1.8-.19,3.43-1.99,5.14-3.06-1.22-1.62-2.12-4.1-3.72-4.69-4.35-1.62-8.93-2.89-13.53-3.48-5.33-.68-7.7-2.21-5.3-8,1-2.41,1.23-5.69.44-8.12-.72-2.21-3.33-5.42-5.08-5.41-8.17.06-11.21-5.94-15-11.23-.47-.66-1.27-1.94-1.11-2.09,8.31-8.09-5.62-21.86,7.36-29.03,1.17-.64,1.14-5.56.08-7.69-2.05-4.11-4.43-9.49-8.1-11.1-11.22-4.91-11.71-14.5-12.85-24.19-.16-1.36-.14-2.84-.67-4.05-3.99-9.1-4.36-17.14,3.01-25.48,2.78-3.14,2.68-10.09,1.78-14.91-1.27-6.8-1.07-11.95,5.76-15.27,1.17-.57,2.67-1.57,2.96-2.65,2.73-10.29,7.74-18.45,18.07-22.99,1.8-.79,2.43-5.22,2.79-8.07.37-2.92-.25-5.97-.3-6.84Z" style="fill: #aed661; stroke: #231f20; stroke-miterlimit: 10; stroke-width: 10px;"/>
  </g>
</svg>