<?xml version="1.0" encoding="UTF-8"?>
<svg id="Layer_2" data-name="Layer 2" xmlns="http://www.w3.org/2000/svg" viewBox="0 0 979.81 865.1">
  <g id="Layer_7" data-name="Layer 7">
    <g>
      <path d="M306.21,322.68c5.64-7.71,5.79-20.76-.7-26.19-2.97-2.48-8.88-3.32-12.84-2.35-9.04,2.22-14.56.7-17.92-8.82-2.73-7.72-9.64-10.74-17.6-7.49-19.39,7.9-34.29,2.56-46.58-14.46,1.66-2.72,3.54-5.96,5.58-9.1,4.81-7.43,8.43-7.63,14.94-1.09,3.47,3.49,6.75,7.35,10.78,10.04,5.08,3.4,9.53,2.81,10.64-4.5.29-1.89,1.04-3.75,1.11-5.64.29-7.18,4.81-9.57,10.66-7.8,16.09,4.87,29.03-.39,40.89-10.91,10.97-9.73,22.43-18.11,38.59-12.69,1.94.65,5.04-.44,6.97-1.69,13.59-8.83,30.78-6.04,43.57,4.84,5.21,4.43,10.68,9.06,16.84,11.74,5.98,2.6,12.95,3.33,19.57,3.95,6.85.65,13.81-.08,20.69.36,2.13.14,4.92,1.58,6.1,3.31,9.95,14.66,16.39,29.65,8.76,48.08-4.33,10.45-7.37,21.95-.15,33.28,1.68,2.63.24,7.09.85,10.6.99,5.72,1.44,11.88,10.62,9.18,5.84-1.72,11.42,8.37,8.72,15.02-9.93,24.44,1.71,43.67,28.01,46.28.52.05,1.02.32,1.96.63,1.15,6.23,1.48,12.99,3.83,18.95,1.43,3.63,5.58,7.92,9.18,8.68,18.05,3.79,35,2.15,48.99-12.21,5.53-5.68,12.35-10.22,18.97-14.71,12.31-8.35,20.71-19.86,27.19-32.87,3.43-6.89,7.18-10.97,15.97-8.91,6.05,1.41,12.72.76,19.05.28,11.13-.84,20.44-5.58,25.08-16.14,3.48-7.92,8.96-12.3,17.15-13.7,6.42-1.1,9.13-4.39,9.38-11.22.33-8.98,7.24-13.29,14.83-15.88,7.68-2.62,15.48-6.45,22.78,1.83,4.45,5.04,10.38,8.99,17.67,5.85,14.09-6.08,26.3-2.08,38.06,6.03,20.84,14.36,43.46,25.06,68.03,31.06,21.05,5.14,42.34,9.27,63.52,13.9,2.89.63,5.71,1.62,9.14,2.6-5.62,13.08-.16,21.16,10.6,27.88,9.73,6.08,14.33,15.27,14.14,27.3-.24,14.65,1.31,29.31,1.22,43.97-.21,37.14-.19,74.31-1.68,111.42-.82,20.52-3.58,41.09-7.17,61.34-2.71,15.31-3.82,29.22,7.35,41.88,6.62,7.5,5.92,16.43,3.71,25.83-3.43,14.62-7.93,29.48-8.06,44.28-.18,20.04,3.87,40.08,5.08,60.18.76,12.61-.23,25.35-.8,38.01-.08,1.71-2.26,3.33-3.47,4.99-1.4-1.14-2.87-2.2-4.19-3.43-6.6-6.12-12.93-12.58-19.8-18.37-11.82-9.96-23.99-19.48-35.97-29.26-4.07-3.32-7.84-7.02-11.98-10.26-9.52-7.43-19.62-9.61-30.61-2.95-7.32,4.44-14.42,4.84-22.64,1.01-6.53-3.04-14.21-3.76-21.46-5.07-4.51-.82-6.95,1.4-7.99,6.17-2.62,11.99-10.16,14.54-19.34,6.84-4.52-3.79-8.98-6.46-14.72-2.1-16.95,12.9-36.17,10.74-57.49,8.53,4.04-7.58,7.29-14.11,10.93-20.42,5.65-9.79,11.85-19.28,17.28-29.18,4.7-8.58,11.46-12.7,21.19-13.43,11.29-.85,21.23-5.41,29.44-13.4,5.03-4.89,6.6-9.79,1.29-15.84-5.17-5.89-6.5-11.14.3-18.3,9.35-9.86,8.13-19.05-1.3-29.31-4.31-4.69-9.19-8.85-13.7-13.35-7.15-7.14-12.35-14.89-13.63-25.64-3.09-25.8-15.38-45.09-40.42-55.85-10.98-4.72-20.29-13.19-30.76-19.26-22.02-12.78-45.36-21.63-71.09-23.81-7.2-.61-14.84-2.91-21.1-6.49-17.18-9.84-36.08-11.27-54.98-13.25-10.7-1.12-21.57-1.47-32.01-3.76-4.33-.95-8.83-5.41-11.38-9.45-7.86-12.51-16.56-22.81-33.19-21.94-2.87.15-5.87-1.28-8.73-2.22-10.85-3.57-12.74-7.14-10.09-18.62,3.9-16.89-.72-28.15-13.93-33.94-13.43-5.89-20.83-1.81-23.79,12.54-3.81,18.48-11.16,35.45-21.63,49.82-19.66-4.6-26.21-20.06-30.87-36.07-4.84-16.59-15.58-27.4-29.41-36.37-8.7-5.64-16.91-12.03-25.14-17.95,5.86-11.37,13.26-13.63,22.92-8.15,14.88,8.45,29.28,5.9,40.85-7.24,8.66-9.83,11.81-10.43,23.35-4.1,4.33,2.38,8.45,5.15,12.77,7.55,8.06,4.46,16.07,3.88,23.02-1.91,8.94-7.45,18.34-15.06,15.69-28.88-1.27-6.65-5.73-8.35-14.18-6.98-14.33,2.32-28.7,4.74-43.16,5.83-4.52.34-10.81-2.23-13.75-5.65-7.67-8.91-16.25-8.76-26.2-5.99-10.85,3.01-22.05,6.42-32.37-1.21-5.5-4.06-10.29-9.09-15.84-14.09Z" style="fill: #aed661; stroke: #231f20; stroke-miterlimit: 10; stroke-width: 10px;"/>
      <path d="M99.34,39.75c-.36,5.32-.92,10.64-1.02,15.97-.07,4-.44,8.33.87,11.96,3.92,10.87.46,18.63-8.61,24.8-9.32,6.34-12.89,15.14-11.71,26.39.87,8.31,5.85,13.39,12.73,15.73,7.71,2.62,7.71-4.39,8.96-9.38,2.12-8.44,3.76-17.12,7.05-25.1,1.26-3.05,6.26-5.35,10-6.42,6.2-1.77,12.76-2.97,19.19-3.04,3.43-.04,8.38,1.86,10.06,4.52,6.63,10.49,1.07,20.2-10.76,23.72-8.38,2.49-16.6,7.02-23.56,12.37-6.05,4.64-4.49,10.25,2.72,13.24,5.78,2.4,12,3.74,17.98,5.68,13.36,4.34,22.39,15.86,21.86,25.63-7.69-1.32-15.62-2.33-23.34-4.19-3.25-.78-6.23-3.15-9.03-5.21-7.5-5.52-15.42-8.3-24.6-4.76-8.47,3.26-10.95,7.4-8.52,15.91,4.87,17.09,10.56,33.96,15,51.15,1.94,7.5,1.65,15.58,2.37,23.39-1.09.29-2.18.57-3.27.86-2.19-4.98-4.72-9.84-6.5-14.95-3.39-9.71-8.01-18.11-18.72-21.33-5.39-1.62-4.95-5.76-4.26-10.03,1.04-6.51,2.23-13.01,2.94-19.55.68-6.29-1.92-10.85-7.49-14.38-10.88-6.88-10.73-7.77-5.16-19.05,2.02-4.1,3.37-8.64,4.32-13.13,1.25-5.92-1.24-9.78-7.08-12.28-2.01-.86-3.59-4.67-3.84-7.28-.58-5.9.24-11.93-.33-17.82-.79-8.18-1.03-16.25,4.27-22.99,10.06-12.81,20.5-25.32,30.85-37.9,1.02-1.24,2.46-2.14,3.71-3.2.98.22,1.97.45,2.95.67Z" style="fill: #aed661; stroke: #231f20; stroke-miterlimit: 10; stroke-width: 10px;"/>
      <path d="M215.87,463.68c-12.76-9.54-24.29-18.22-35.9-26.81-4.19-3.1-8.21-6.91-12.95-8.68-4.3-1.61-10.48-2.75-14.06-.82-7.86,4.24-13.84,2.15-19.64-2.64-9.94-8.22-20.38-9.49-32.04-4.01-4.91,2.31-10.2,4.17-15.51,5.15-4.18.77-9.58,1.42-12.87-.53-13.82-8.17-28.95-7.82-44.06-8.95-7.84-.58-15.54-2.98-23.3-4.55-.1-1.5-.2-2.99-.29-4.49,10.25-3.06,20.33-7.58,30.78-8.77,10.96-1.25,21.77-.83,31.99-6.53,3.15-1.75,9.06-.43,12.89,1.29,9.65,4.36,17.71,6.79,28.13-.47,8.79-6.13,19.38-6.95,30.66.52,7.74,5.12,19.23,5.55,29.16,6.09,10.26.56,15.87,5.97,21.05,13.61,3.34,4.92,6.82,10.58,11.68,13.49,13.55,8.09,18,19.33,14.27,37.12Z" style="fill: #aed661; stroke: #231f20; stroke-miterlimit: 10; stroke-width: 10px;"/>
      <path d="M540.57,663.94c3.87-1.23,5.93-2.13,8.08-2.51,7.68-1.35,9.6-4.57,5.74-12.04-4.67-9.05.7-21.33,9.62-26.53,3.22-1.88,5.44-5.7,7.68-8.95,1.9-2.76,3.17-5.97,4.72-8.98.8.05,1.59.1,2.39.16.6,2.87.97,5.83,1.85,8.61,6.03,19.04,6.87,38.35,2.55,57.76-.76,3.4-3.84,8.55-6.36,8.87-9.28,1.18-11.8,7.85-15.05,14.65-2.21,4.62-4.59,9.49-8.13,13.01-2.3,2.29-6.82,2.35-10.34,3.41-.92-3.05-2.55-6.08-2.62-9.15-.3-12.7-.13-25.4-.13-38.31Z" style="fill: #aed661; stroke: #231f20; stroke-miterlimit: 10; stroke-width: 10px;"/>
      <path d="M660.23,317.95c-6,2.97-11.75,6.39-17.94,8.65-3.2,1.17-7.76,1.53-10.66.12-14.56-7.09-29.43-11.39-45.88-12.32-7.61-.43-14.88-7.06-22.3-10.88.31-.75.61-1.5.92-2.25,32.33,5.62,64.66,11.25,95.86,16.67Z" style="fill: #aed661; stroke: #231f20; stroke-miterlimit: 10; stroke-width: 10px;"/>
      <path d="M639.86,267.11c-5.13,6.43-9.75,10.4-17.85,5.49-6.6-4-13.65-4-19.12,2.04-8.27-2.62-12.13-7.98-14.86-15.64-1.71-4.79-6.72-8.75-10.99-12.16-4.61-3.69-10.08-6.3-14.67-11.26,1.95-.2,3.95-.78,5.84-.54,16.89,2.16,32.36,6.79,44.5,20.28,4.33,4.81,12,6.7,18.31,9.57,2.56,1.17,5.54,1.42,8.86,2.22Z" style="fill: #aed661; stroke: #231f20; stroke-miterlimit: 10; stroke-width: 10px;"/>
      <path d="M213.6,216.17c3.8-12.15,3.47-12.45-8.76-14.38-8.58-1.36-17.11-3.1-25.65-4.66-.06-.94-.12-1.87-.18-2.81,3.96-.86,7.95-2.57,11.87-2.42,10.79.4,20.56-1.13,29.44-8.17,5.06-4.01,10.9-3.72,16.28,1.4,2.56,2.44,6.59,3.85,10.19,4.59,7.29,1.49,10.54,6.04,11.91,12.72-.76.39-1.44.97-1.68.83-11.42-6.68-21.22-5.54-30.15,4.91-2.83,3.31-7.78,4.8-13.26,8Z" style="fill: #aed661; stroke: #231f20; stroke-miterlimit: 10; stroke-width: 10px;"/>
      <path d="M126.56,46.47c-1.41-2.39-2.28-4.89-3.97-6.52-5.35-5.16-7.06-10.82-4.13-17.88,3.59-8.66,9.4-15.08,18.66-17.01,2.28-.48,6.35,2.09,7.75,4.39,1.64,2.7,2.84,7.57,1.48,9.84-5.26,8.78-11.62,16.9-17.6,25.25-.47.65-1.22,1.1-2.19,1.94Z" style="fill: #aed661; stroke: #231f20; stroke-miterlimit: 10; stroke-width: 10px;"/>
    </g>
  </g>
</svg>