<?xml version="1.0" encoding="UTF-8"?>
<svg id="Layer_2" data-name="Layer 2" xmlns="http://www.w3.org/2000/svg" viewBox="0 0 575.33 620.9">
  <g id="Layer_6" data-name="Layer 6">
    <g>
      <path d="M332.03,493.19c-14.54-.1-14.97.42-15.02,14.25-.03,8.19-1.9,16.69,7.25,22.14,1.42.85.8,5.11,1.26,8.91-11.51-.58-23.06-.93-20.03,16.04h-20.6c.85-3.55,1.25-6.39,2.24-9.01,1.16-3.09,3.45-5.85,4.11-8.99.54-2.61-.58-5.56-.97-8.36-2.47.5-5.06.7-7.38,1.59-2.74,1.06-5.24,2.72-10.13,5.35,2.24-9.23,5.51-16.3,5.18-23.21-.3-6.53-4.38-12.88-6.06-17.37,7.99-3.68,15.17-5.65,20.61-9.86,6.07-4.7,6.17-14.91,1.87-20.28-5.33-6.66-11.36-4.83-17.78-1.69-5.6,2.73-11.68,4.5-17.21,7.35-9.31,4.81-13.51,12.65-12.32,23.26.21,1.86-.3,3.81-.48,5.8-8.55-1.93-16.87-3.55-25.04-5.75-5.49-1.48-10.17-3.58-8.32-11.45.71-3.05-1.93-7.21-3.77-10.46-2.99-5.27-3.25-9.56-.04-15.33,2.87-5.17,3.34-11.85,4.04-17.96.21-1.8-2.01-4.41-3.78-5.8-4.55-3.59-9.5-6.69-14.25-10.03-8.97-6.3-17.91-12.64-27.26-19.24,1.47-2.61,2.68-5,4.11-7.25,2.92-4.59,3.71-8.99-.32-13.45-4.31-4.77-3.57-9.86-1.11-15.33,3-6.67,5.54-13.55,8.16-20.38,2.49-6.51,2.69-14.41-3.85-16.78-6.81-2.47-15.26-1.42-22.79-.42-3.22.43-5.68,5.08-8.95,7.02-4.56,2.71-9.57,4.68-14.38,6.97-7.1,3.39-14.72,6.03-21.14,10.41-6.39,4.37-5.6,10.29.71,14.79,1.56,1.11,3.47,1.74,5.01,2.88,6.32,4.65,10.7,9.46,10.63,18.8-.1,13.97-2.88,27.12-6.24,40.42-.78,3.1-.42,7.63,1.38,10.02,5.44,7.23,4.52,14.8,3.78,22.92-.56,6.11,1.06,12.38,1.02,18.58-.02,3.44-.38,7.9-2.47,10.14-7.96,8.53-7.85,16.85-3.05,27.06,6.72,14.31,12.09,29.26,17.81,44.03.86,2.21.82,4.93.62,7.37-1.01,12.56-2.2,25.1-3.37,37.65-.09,1-.59,1.95-1.63,2.92-2.86-11.33-6.78-22.19-2.93-34.46,3.21-10.21-6.15-30.77-14.1-33.76-2.05-.77-4.69-.99-6.79-.45-5.26,1.37-10.07,5.63-15.93.91-.81-.65-4.32,1.59-6.28,2.93-9.33,6.36-20.18,5.18-27.61-2.88-4.79-5.19-6.08-10.51-1.25-16.16,5.81-6.8,8.58-13.41,4-22.55-1.64-3.28.65-9.01,2.13-13.29,5.89-17.05,11.31-33.86,1.84-51.59-1.78-3.33-1.39-8.04-1.3-12.09.36-16.25-9.4-27.15-19.82-37.57-1.36-1.36-5.11-1.15-7.46-.54-3.94,1.03-7.55,3.39-11.5,4.35-1.83.44-5.29-.49-6.04-1.87-5.42-10-11.46-19.78-10.35-32.1.31-3.46-2.31-7.1-2.95-10.77-.57-3.24-1.36-7.28.06-9.75,1.05-1.83,5.52-1.62,8.42-2.5,2.27-.69,5.54-1.02,6.52-2.63,7.82-12.83,17.23-25.19,14.54-41.37,13.71-3.99,15.91-7.8,13.83-21.79-1.37-9.21-2.94-18.46-3.25-27.73-.11-3.23,2.73-7.12,5.24-9.74,4.57-4.78,8.26-9.49,7.67-16.62-.12-1.5,1.45-3.26,2.51-4.7,2.7-3.68,5.48-7.3,8.37-10.83,1.66-2.03,3.3-4.33,5.47-5.66,7.75-4.73,9.86-10.2,7.3-18.54-.81-2.63-.26-5.69-.28-8.55-.03-4.85.65-9.81-.17-14.52-1.1-6.31-1.59-11.45,2.32-17.73,3.86-6.19,3.84-14.69,6.31-21.91,1.25-3.65,4.28-6.68,6.45-10.02,2.26-3.47,5.37-6.71,6.46-10.52,1.28-4.47,1.82-8.06,7.4-9.48,2.51-.64,4.57-4.53,6.08-7.35,2.35-4.41,4.06-9.17,6.04-13.79.9.38,1.8.75,2.69,1.13-.46,1.77-.88,3.55-1.4,5.3-1.47,4.96,1.14,7.31,5.48,8.29,12.93,2.94,22.78-4.27,23.91-17.37.87-10.11,14.45-20.33,24.08-18.19,4.02.89,8.07,1.84,12.16,2.25,3.8.38,7.67.08,11.57.08-1.39,12.59,11.32,21.41,24.52,17.72,3.15-.88,6.06-3.01,9.22-3.39,3.25-.39,6.74.35,10,1.12,5.48,1.3,10.82,3.13,16.28,4.53,5.47,1.4,11.22,1.98,16.47,3.94,8.29,3.09,16,8.17,24.49,10.12,4.21.97,9.6-3.16,14.53-5.02,4.75-.51,9.93-1.06,15.11-1.65,1.08-.12,2.19-.77,3.2-.62,10.39,1.53,20.72,3.86,31.17,4.58,8.77.6,17.7-.32,26.49-1.19,4.43-.44,8.88-1.88,13.02-3.6,3.85-1.6,8.37-3.39,10.66-6.51,4.08-5.56,8.04-9.36,15.54-8.54,2.52.27,5.3-1.79,8.03-2.81-5.33-11.77-4.5-12.92,6.96-15.44,3.61-.8,6.77-3.68,11.26-6.25-2.78-2.32-4.69-3.19-5.34-4.63-.8-1.78-1.21-4.31-.53-6,.53-1.32,3.74-3.06,4.48-2.59,12.33,7.83,15.23-1.74,18.96-9.95.33-.72,1.02-1.28,2.07-2.56,10.11,6.46.7,19.05,10.99,26.56-12.5.55-15.35,7.87-19.21,15.55-3.4,6.77-10.07,11.87-15.1,17.87-5.08,6.06-11.22,11.68-14.59,18.62-6.56,13.51-15.41,21.03-31.21,18.72-4.17-.61-9.1.01-12.93,1.73-15.96,7.15-33.05,4.4-49.56,6.51-4.89.63-7.41-1.24-8.74-6.31-2.04-7.78-7.04-9.98-15.59-9.06-23.27,2.5-46.69,4.87-70.06,4.97-29.2.12-25.53.87-35.44,5.23-9.09-10.5-19.63-2.76-29.61-1.51-6.68-10-7.75-10.46-18.69-4.95-5.99,3.02-11.58,4.64-18,1.27-16.07-8.43-28.68-6.07-37.61,9.53-11.05,19.3-18.9,39.86-9.57,62.7.89,2.18.59,4.91.61,7.39.12,13.22,1.63,16.16,14.57,20.48,8.08,2.69,12.56,7.3,13.65,15.53.07.55-.05,1.17.17,1.64,4.46,9.61,16.29,13.25,19.52,24.06.34,1.14,4.18,2.13,6.1,1.74,9.98-2.04,20.57-3.07,29.52-7.4,6.08-2.95,10.81-10.2,14.32-16.54,3.48-6.28,7.96-10.2,14.24-12.98,5.24-2.32,10.2-5.51,13.23,2.68.29.79,1.78,1.18,2.76,1.66,3.85,1.89,33.05-2.72,34.91-6.36,4.15-8.13,10.51-6.3,17.42-5.87,6.61.42,13.34-.89,20-1.62,1.59-.17,3.05-1.36,4.65-1.59,11.54-1.68,11.55-1.64,9.62-12.65,7.86,0,15.77-.38,23.59.28,1.84.15,4.22,3.55,4.92,5.88,1.8,6.04,2.8,12.31,4.58,20.64-4.44-1.86-6.54-2.13-7.73-3.33-7.58-7.62-15.38-7.16-23.85-1.55-2.19,1.45-5.14,2.34-7.77,2.42-11.2.33-18.02,7.19-24.06,15.39-1.47,2-3.08,3.93-4.33,6.07-7.49,12.78-17.75,21.6-32.98,23.44-8.77,1.06-14.42,6.23-18.52,13.65-.86,1.56-2.01,3.36-3.49,4.1-7.34,3.67-14.84,7.01-22.83,10.72-.98-2.58-1.23-5.45-2.8-6.9-2.64-2.44-6.46-5.94-9.17-5.47-5.31.92-8.93,5.73-6.04,11.22,2.3,4.36,6.46,7.89,10.29,11.24,5.31,4.64,10.98,8.88,16.67,13.05,2.62,1.92,5.62,4.59,8.49,4.65,6.68.12,7.79,4.77,9.98,9.27,5.45,11.24,10.8,22.57,17.23,33.25,1.63,2.7,7.14,4.19,10.89,4.22,5.44.06,7.23,2.89,8.59,7.09,1.54,4.74,3.55,9.48-1.53,13.49-2.17,1.71-4.49,3.36-6.22,5.47-3.47,4.22-4.92,8.39.41,12.76,6.96,5.71,10.01,13.5,10.99,22.4.44,4.02,2.05,7.93,3.36,11.82,2.25,6.68,6.7,10.49,14.07,10.53,6.1.03,10.32,2.36,11.64,9.08,1.69,8.62,5.92,14.73,16.12,14.46,1.53-.04,3.88,2.73,4.6,4.66,3.05,8.17,5.63,16.52,8.45,25.02Z" style="fill: #aed661; stroke: #231f20; stroke-miterlimit: 10; stroke-width: 10px;"/>
      <path d="M568.7,279.69c-5.34,0-10.91.98-15.96-.22-8.11-1.93-15.09-2.7-22.08,3.5-5.99,5.31-13.03,5.11-19.32-.55-4.57-4.11-9.44-4.54-15.27-2.34-8.64,3.26-17.24,5.5-27.08,3.85-6.26-1.05-13.3,2.26-19.93,3.82-2.92.69-5.65,2.23-8.58,2.81-5.84,1.16-11.85,6.16-17.61-.13-6.14-6.72-9.2-14.18-4.35-25.27,8.44,0,17.71-.14,26.97.11,2.05.05,5.07.85,5.92,2.31,4.42,7.6,11.31,6.01,18.18,6.04,9.35.04,18.69,1.38,28.03,1.3,10.97-.09,21.94-1.22,32.91-1.66,5.34-.21,10.79-.47,16.03.34,7.35,1.14,14.56,3.26,21.82,4.96.11.38.22.76.32,1.14Z" style="fill: #aed661; stroke: #231f20; stroke-miterlimit: 10; stroke-width: 10px;"/>
      <path d="M457.28,355.84c12.61.93,23.02,2.19,33.45,2.33,9.85.13,19.73-1.43,29.58-1.21,3.54.08,7.76,2.46,10.37,5.08,5.5,5.55,10.29,11.83,15.07,18.04,2.3,2.99,4.82,6.34,5.5,9.86.37,1.89-2.71,6.28-4.61,6.52-31.73,4.02-58.45-6.78-81.18-28.56-1.77-1.69-3.08-3.88-4.51-5.91-.9-1.28-1.62-2.68-3.67-6.16Z" style="fill: #aed661; stroke: #231f20; stroke-miterlimit: 10; stroke-width: 10px;"/>
      <path d="M350.28,252.25c-1.9-1.24-5.31-2.23-5.68-3.9-1.63-7.37-3.95-11.79-13.22-11.37-4.6.21-7.61-.21-9.77,4.13-.85,1.71-1.71,3.61-3.09,4.84-2.58,2.3-5.55,4.18-8.36,6.23-1.6-3.87-4.14-7.65-4.51-11.64-.29-3.17,2.08-6.59,2.83-8.67,5.92-.75,10.98-.89,15.77-2.11,11.04-2.8,20.87.27,30.1,5.77,4.11,2.45,2.23,9.99-4.08,16.72Z" style="fill: #aed661; stroke: #231f20; stroke-miterlimit: 10; stroke-width: 10px;"/>
      <path d="M231.09,524.12c.2-.79.56-3.25,1.52-5.43.43-.96,2.14-1.94,3.2-1.87,1.11.07,2.83,1.21,3.08,2.19,1.83,7.19,3.35,14.45,3.7,22.23-3.46-5.15-6.92-10.3-11.51-17.12Z" style="fill: #aed661; stroke: #231f20; stroke-miterlimit: 10; stroke-width: 10px;"/>
      <path d="M332.01,439.77c-2.08,3.99-3.56,6.81-5.59,10.7-4.04-4.19-7.47-7.75-10.9-11.31.69-.99,1.39-1.98,2.08-2.97,4.49,1.12,8.98,2.23,14.41,3.58Z" style="fill: #aed661; stroke: #231f20; stroke-miterlimit: 10; stroke-width: 10px;"/>
    </g>
  </g>
</svg>